<?xml version="1.0" encoding="UTF-8"?>
<svg width="24px" height="24px" viewBox="0 0 24 24" version="1.1" xmlns="http://www.w3.org/2000/svg" xmlns:xlink="http://www.w3.org/1999/xlink">
    <!-- Generator: Sketch 52.5 (67469) - http://www.bohemiancoding.com/sketch -->
    <title>icons/close</title>
    <desc>Created with Sketch.</desc>
    <g id="icons/close" stroke="none" stroke-width="1" fill="none" fill-rule="evenodd" opacity="0.900000036">
        <path d="M13.8994949,12.4852814 L18.8492424,17.4350288 C19.2397667,17.8255531 19.2397667,18.4587181 18.8492424,18.8492424 L18.8492424,18.8492424 C18.4587181,19.2397667 17.8255531,19.2397667 17.4350288,18.8492424 L11.7781746,13.1923882 L6.12132034,18.8492424 C5.73079605,19.2397667 5.09763107,19.2397667 4.70710678,18.8492424 L4.70710678,18.8492424 C4.31658249,18.4587181 4.31658249,17.8255531 4.70710678,17.4350288 L10.363961,11.7781746 L4.70710678,6.12132034 C4.31658249,5.73079605 4.31658249,5.09763107 4.70710678,4.70710678 L4.70710678,4.70710678 C5.09763107,4.31658249 5.73079605,4.31658249 6.12132034,4.70710678 L11.7781746,10.363961 L17.4350288,4.70710678 C17.8255531,4.31658249 18.4587181,4.31658249 18.8492424,4.70710678 L18.8492424,4.70710678 C19.2397667,5.09763107 19.2397667,5.73079605 18.8492424,6.12132034 L13.8994949,11.0710678 C13.5089706,11.4615921 13.5089706,12.0947571 13.8994949,12.4852814 Z" id="Path" fill="#fff"></path>
    </g>
</svg>
