<?xml version="1.0" encoding="UTF-8"?>
<svg width="456px" height="456px" viewBox="0 0 456 456" version="1.1" xmlns="http://www.w3.org/2000/svg" xmlns:xlink="http://www.w3.org/1999/xlink">
    <!-- Generator: Sketch 52.5 (67469) - http://www.bohemiancoding.com/sketch -->
    <title>drums/sketches/9P</title>
    <desc>Created with Sketch.</desc>
    <defs>
        <radialGradient cx="0%" cy="0%" fx="0%" fy="0%" r="104.407547%" id="radialGradient-1">
            <stop stop-color="#FFFFFF" stop-opacity="0.638740166" offset="0%"></stop>
            <stop stop-color="#FFFFFF" stop-opacity="0" offset="100%"></stop>
        </radialGradient>
        <radialGradient cx="53.8044011%" cy="105.081417%" fx="53.8044011%" fy="105.081417%" r="92.5134044%" gradientTransform="translate(0.538044,1.050814),rotate(-31.913819),scale(1.000000,0.955105),translate(-0.538044,-1.050814)" id="radialGradient-2">
            <stop stop-color="#000000" stop-opacity="0.406058785" offset="0%"></stop>
            <stop stop-color="#000000" stop-opacity="0" offset="100%"></stop>
        </radialGradient>
        <radialGradient cx="50%" cy="50%" fx="50%" fy="50%" r="48.7455986%" gradientTransform="translate(0.500000,0.500000),rotate(90.000000),scale(1.000000,1.148656),translate(-0.500000,-0.500000)" id="radialGradient-3">
            <stop stop-color="#FFFFFF" stop-opacity="0" offset="0%"></stop>
            <stop stop-color="#FFFFFF" stop-opacity="0.027905794" offset="25.793189%"></stop>
            <stop stop-color="#FFFFFF" stop-opacity="0" offset="32.4070872%"></stop>
            <stop stop-color="#FFFFFF" stop-opacity="0.00662025138" offset="38.5191136%"></stop>
            <stop stop-color="#FFFFFF" stop-opacity="0.0307062553" offset="54.3809168%"></stop>
            <stop stop-color="#FFFFFF" stop-opacity="0.159500656" offset="100%"></stop>
        </radialGradient>
        <radialGradient cx="50%" cy="33.6545182%" fx="50%" fy="33.6545182%" r="89.6958404%" id="radialGradient-4">
            <stop stop-color="#F9F1BA" offset="0%"></stop>
            <stop stop-color="#978E58" offset="100%"></stop>
        </radialGradient>
        <circle id="path-5" cx="228" cy="240" r="192"></circle>
    </defs>
    <g id="drums/sketches/9P" stroke="none" stroke-width="1" fill="none" fill-rule="evenodd">
        <g id="Oval">
            <use fill="#211104" fill-rule="evenodd" xlink:href="#path-5"></use>
            <use fill="url(#radialGradient-1)" fill-rule="evenodd" style="mix-blend-mode: overlay;" xlink:href="#path-5"></use>
            <use fill-opacity="0.35" fill="" fill-rule="evenodd" style="mix-blend-mode: overlay;" xlink:href="#path-5"></use>
            <use fill="url(#radialGradient-2)" fill-rule="evenodd" style="mix-blend-mode: overlay;" xlink:href="#path-5"></use>
            <circle stroke-opacity="0.0973011364" stroke="#000000" stroke-width="8" stroke-linejoin="square" fill="url(#radialGradient-3)" fill-rule="evenodd" cx="228" cy="240" r="188"></circle>
            <circle stroke="url(#radialGradient-4)" stroke-width="6" stroke-linejoin="square" cx="228" cy="240" r="189"></circle>
        </g>
        <path d="M352,204.3 C367.327134,204.3 379.7,218.964138 379.7,237 C379.7,255.035862 367.327134,269.7 352,269.7 C336.672866,269.7 324.3,255.035862 324.3,237 C324.3,218.964138 336.672866,204.3 352,204.3 Z M352,205.7 C337.503757,205.7 325.7,219.689638 325.7,237 C325.7,254.310362 337.503757,268.3 352,268.3 C366.496243,268.3 378.3,254.310362 378.3,237 C378.3,219.689638 366.496243,205.7 352,205.7 Z M152.775675,363.779246 C140.750587,375.804334 118.15671,372.576637 102.28825,356.708178 C86.4197914,340.839719 83.1920947,318.245842 95.2171827,306.220754 C107.242271,294.195666 129.836148,297.423363 145.704607,313.291822 C161.573066,329.160281 164.800763,351.754158 152.775675,363.779246 Z M151.785725,362.789297 C163.192095,351.382927 160.088142,329.655256 144.714657,314.281771 C129.341173,298.908287 107.613502,295.804334 96.2071322,307.210703 C84.8007626,318.617073 87.9047157,340.344744 103.2782,355.718229 C118.651684,371.091713 140.379356,374.195666 151.785725,362.789297 Z M368.885505,317.802793 C376.07257,333.215501 365.311966,353.342864 344.973159,362.827005 C324.634353,372.311146 302.299116,367.616628 295.112052,352.203919 C287.924987,336.79121 298.685591,316.663848 319.024398,307.179707 C339.363204,297.695566 361.698441,302.390084 368.885505,317.802793 Z M367.616675,318.394458 C360.799401,303.774769 339.320455,299.260229 319.616063,308.448538 C299.911672,317.636846 289.563609,336.992564 296.380883,351.612254 C303.198156,366.231943 324.677103,370.746483 344.381494,361.558174 C364.085885,352.369866 374.433948,333.014148 367.616675,318.394458 Z M228,277.3 C256.360465,277.3 279.3,259.242525 279.3,237 C279.3,214.757475 256.360465,196.7 228,196.7 C199.639535,196.7 176.7,214.757475 176.7,237 C176.7,259.242525 199.639535,277.3 228,277.3 Z M228,278.7 C198.929894,278.7 175.3,260.099089 175.3,237 C175.3,213.900911 198.929894,195.3 228,195.3 C257.070106,195.3 280.7,213.900911 280.7,237 C280.7,260.099089 257.070106,278.7 228,278.7 Z M228,135.7 C214.368229,135.7 203.3,125.318173 203.3,112.488372 C203.3,99.842611 214.155177,90.3 228,90.3 C241.844823,90.3 252.7,99.842611 252.7,112.488372 C252.7,125.318173 241.631771,135.7 228,135.7 Z M228,134.3 C240.877897,134.3 251.3,124.524229 251.3,112.488372 C251.3,100.658835 241.108897,91.7 228,91.7 C214.891103,91.7 204.7,100.658835 204.7,112.488372 C204.7,124.524229 215.122103,134.3 228,134.3 Z M111.980845,162.049653 C100.657354,152.548116 100.956249,133.650429 112.546613,119.837571 C124.136978,106.024712 142.695664,102.44881 154.019155,111.950347 C165.342646,121.451884 165.043751,140.349571 153.453387,154.162429 C141.863022,167.975288 123.304336,171.55119 111.980845,162.049653 Z M112.880748,160.977191 C123.557139,169.935747 141.251174,166.526446 152.380924,153.262527 C163.510675,139.998607 163.795644,121.981365 153.119252,113.022809 C142.442861,104.064253 124.748826,107.473554 113.619076,120.737473 C102.489325,134.001393 102.204356,152.018635 112.880748,160.977191 Z M294.680969,120.65 C302.071853,107.848614 320.734344,104.861419 336.35,113.877122 C351.965656,122.892825 358.709915,140.548614 351.319031,153.35 C343.928147,166.151386 325.265656,169.138581 309.65,160.122878 C294.034344,151.107175 287.290085,133.451386 294.680969,120.65 Z M295.893405,121.35 C288.924885,133.41983 295.354928,150.253034 310.35,158.910443 C325.345072,167.567852 343.138075,164.71983 350.106595,152.65 C357.075115,140.58017 350.645072,123.746966 335.65,115.089557 C320.654928,106.432148 302.861925,109.28017 295.893405,121.35 Z M228,407.7 C203.346568,407.7 183.3,392.20947 183.3,373 C183.3,353.79053 203.346568,338.3 228,338.3 C252.653432,338.3 272.7,353.79053 272.7,373 C272.7,392.20947 252.653432,407.7 228,407.7 Z M228,406.3 C251.947626,406.3 271.3,391.345893 271.3,373 C271.3,354.654107 251.947626,339.7 228,339.7 C204.052374,339.7 184.7,354.654107 184.7,373 C184.7,391.345893 204.052374,406.3 228,406.3 Z M104,269.7 C88.6728663,269.7 76.3,255.035862 76.3,237 C76.3,218.964138 88.6728663,204.3 104,204.3 C119.327134,204.3 131.7,218.964138 131.7,237 C131.7,255.035862 119.327134,269.7 104,269.7 Z M104,268.3 C118.496243,268.3 130.3,254.310362 130.3,237 C130.3,219.689638 118.496243,205.7 104,205.7 C89.5037572,205.7 77.7,219.689638 77.7,237 C77.7,254.310362 89.5037572,268.3 104,268.3 Z" id="Combined-Shape" fill="#FFFFFF" fill-rule="nonzero" opacity="0.3"></path>
    </g>
</svg>