<?xml version="1.0" encoding="UTF-8"?>
<svg width="384px" height="384px" viewBox="0 0 384 384" version="1.1" xmlns="http://www.w3.org/2000/svg" xmlns:xlink="http://www.w3.org/1999/xlink">
    <!-- Generator: Sketch 52.5 (67469) - http://www.bohemiancoding.com/sketch -->
    <title>drums/sketches/9</title>
    <desc>Created with Sketch.</desc>
    <defs>
        <radialGradient cx="0%" cy="0%" fx="0%" fy="0%" r="104.407547%" id="radialGradient-1">
            <stop stop-color="#FFFFFF" stop-opacity="0.638740166" offset="0%"></stop>
            <stop stop-color="#FFFFFF" stop-opacity="0" offset="100%"></stop>
        </radialGradient>
        <radialGradient cx="53.8044011%" cy="105.081417%" fx="53.8044011%" fy="105.081417%" r="92.5134044%" gradientTransform="translate(0.538044,1.050814),rotate(-31.913819),scale(1.000000,0.955105),translate(-0.538044,-1.050814)" id="radialGradient-2">
            <stop stop-color="#000000" stop-opacity="0.406058785" offset="0%"></stop>
            <stop stop-color="#000000" stop-opacity="0" offset="100%"></stop>
        </radialGradient>
        <radialGradient cx="50%" cy="50%" fx="50%" fy="50%" r="50%" id="radialGradient-3">
            <stop stop-color="#FFFFFF" stop-opacity="0" offset="0%"></stop>
            <stop stop-color="#FFFFFF" stop-opacity="0.027905794" offset="25.793189%"></stop>
            <stop stop-color="#FFFFFF" stop-opacity="0" offset="32.4070872%"></stop>
            <stop stop-color="#FFFFFF" stop-opacity="0.00662025138" offset="38.5191136%"></stop>
            <stop stop-color="#FFFFFF" stop-opacity="0.0307062553" offset="54.3809168%"></stop>
            <stop stop-color="#FFFFFF" stop-opacity="0.159500656" offset="100%"></stop>
        </radialGradient>
        <radialGradient cx="50%" cy="33.6545182%" fx="50%" fy="33.6545182%" r="89.6958404%" id="radialGradient-4">
            <stop stop-color="#F9F1BA" offset="0%"></stop>
            <stop stop-color="#978E58" offset="100%"></stop>
        </radialGradient>
        <circle id="path-5" cx="192" cy="192" r="192"></circle>
    </defs>
    <g id="drums/sketches/9" stroke="none" stroke-width="1" fill="none" fill-rule="evenodd">
        <g id="-g-Oval">
            <use fill="#001C3A" fill-rule="evenodd" xlink:href="#path-5"></use>
            <use fill="url(#radialGradient-1)" fill-rule="evenodd" style="mix-blend-mode: overlay;" xlink:href="#path-5"></use>
            <use fill-opacity="0.35" fill="" fill-rule="evenodd" style="mix-blend-mode: overlay;" xlink:href="#path-5"></use>
            <use fill="url(#radialGradient-2)" fill-rule="evenodd" style="mix-blend-mode: overlay;" xlink:href="#path-5"></use>
            <circle stroke-opacity="0.0973011364" stroke="#000000" stroke-width="8" stroke-linejoin="square" fill="url(#radialGradient-3)" fill-rule="evenodd" cx="192" cy="192" r="188"></circle>
            <circle stroke="url(#radialGradient-4)" stroke-width="6" stroke-linejoin="square" cx="192" cy="192" r="189"></circle>
        </g>
        <path d="M199,239.115702 C201.506341,236.552865 203.392973,233.478097 204.522267,230.115702 L205.24718,230.906204 L206,236.030179 L204.747594,236.375111 L204.568498,233.614388 L203.263661,236.245457 L203.886423,236.003032 L203.778482,236.650038 L202.780619,236.954286 L201.944648,238.359198 L199,239.115702 Z M206.666961,232.874376 C206.15278,232.114264 206.104097,231.093125 206.543226,230.279012 C206.982355,229.4649 207.824636,229.014769 208.683996,229.134943 C208.800427,229.095037 208.925953,229.155435 208.977359,229.276098 C209.028765,229.396761 208.990107,229.540267 208.887014,229.611481 C208.320714,229.635978 207.809106,229.986938 207.543863,230.532873 C207.27862,231.078809 207.299777,231.737316 207.599408,232.261688 C208.484231,233.127397 208.703648,234.544306 208.128543,235.678632 C207.553438,236.812959 206.336086,237.364361 205.192837,237.008365 C205.064844,236.957813 204.985779,236.817679 205.002132,236.670361 C205.018486,236.523043 205.125933,236.40751 205.261294,236.391694 C206.06304,236.486399 206.828221,236.002165 207.150291,235.196269 C207.47236,234.390374 207.276576,233.449838 206.666961,232.874376 Z M210.422686,231.774032 L209.460854,232.09513 L209,231.321259 L210.444895,230.727154 L210.496885,228.912464 L209.871777,228.535765 L210.472641,227.769498 L210.166945,226.092953 L211.416486,225.115702 L211.244119,227.640551 L211.893894,228.129563 L211.305544,228.802156 L211.444205,230.293453 L213,229.791984 L212.918556,230.183266 L211.481542,231.226571 L211.581892,233.481407 L212.841875,232.837206 L212.847952,233.617283 L210.759717,235.115702 L210.328297,234.770534 L210.422686,231.774032 Z M240.340919,172.887038 C237.673796,170.882368 234.50096,169.648677 231.172591,169.322128 C224.760229,168.705352 218.948182,173.089559 217.824422,179.391062 C216.966166,184.952123 218.416646,190.62109 221.843805,195.100169 C222.213886,195.901951 223.030797,196.406141 223.918358,196.380566 C224.805919,196.35499 225.592035,195.804607 225.914706,194.982864 C226.237377,194.16112 226.034038,193.22735 225.398325,192.611545 C224.81222,191.929189 224.357596,191.145469 224.057187,190.299577 C223.263134,187.611589 223.236008,184.757375 223.978831,182.054973 C224.116264,183.775849 224.866939,185.391646 226.095993,186.612078 C225.301512,187.292261 224.854627,188.289565 224.877576,189.331189 C224.900526,190.372814 225.390909,191.349741 226.214587,191.994743 C227.047808,192.892247 227.291007,194.184014 226.840625,195.319984 C226.390244,196.455954 225.325605,197.236055 224.100053,197.328105 C222.874501,197.420155 221.703887,196.807941 221.086679,195.752156 C217.528204,190.933102 216.054816,184.901765 216.993955,178.998523 C217.528735,175.533136 219.48287,172.441907 222.392805,170.458132 C225.30274,168.474356 228.909185,167.774798 232.356628,168.525404 C235.668536,169.22018 238.807082,170.566029 241.58755,172.483745 C250.000039,194.529617 242.475649,219.440192 223.234663,233.243618 C203.993678,247.047043 177.822755,246.309386 159.40065,231.444382 C140.978546,216.579379 134.888202,191.285057 144.545572,169.748505 C149.437083,166.645842 155.590999,166.259845 160.83653,168.726674 C164.181988,170.304185 166.673825,173.246013 167.666512,176.790056 C169.345352,183.014222 169.264584,189.577648 167.433081,195.759189 C166.918682,196.871103 165.809511,197.592901 164.577875,197.617229 C163.346239,197.641557 162.209059,196.96413 161.650569,195.873408 C161.092079,194.782687 161.210641,193.470774 161.955771,192.496308 C162.659653,191.720278 162.97756,190.672365 162.822534,189.639212 C162.667507,188.606059 162.055772,187.695796 161.154661,187.157413 C162.277461,185.839814 162.890482,184.16767 162.88359,182.441393 C164.013084,185.013818 164.401365,187.847259 164.005166,190.625993 C163.867482,191.469845 163.574572,192.281305 163.141083,193.019793 C162.580323,193.593605 162.419384,194.444922 162.732374,195.18173 C163.045364,195.918537 163.771598,196.397974 164.576658,196.399267 C165.381718,196.400561 166.109509,195.923462 166.424898,195.187664 C168.251297,189.192432 168.273326,182.797564 166.488275,176.790056 C165.555366,173.495551 163.172557,170.796912 160.005989,169.448575 C155.184109,167.713591 149.844454,168.118389 145.343454,170.560138 C139.948534,185.174349 141.292655,201.405465 149.019228,214.947434 C156.7458,228.489404 170.073795,237.973358 185.467347,240.88324 C185.878871,240.973902 186.296533,241.034465 186.716975,241.06444 C187.708774,241.131093 188.676606,240.742463 189.343179,240.009896 C190.009753,239.277329 190.301511,238.281664 190.134863,237.308168 C189.965901,236.353523 189.666819,235.426188 189.245866,234.55174 C189.454441,234.154019 189.65378,233.751586 189.843725,233.344759 C189.198504,233.416198 188.549063,233.442977 187.900101,233.424901 C188.290274,232.868049 188.713144,232.334522 189.166511,231.827094 C188.821568,231.698803 188.459341,231.622168 188.09171,231.599703 C187.651998,229.9231 187.919701,228.140873 188.832965,226.664809 C186.024611,225.492769 182.776293,226.557852 181.222132,229.160306 C180.707438,230.029503 180.674335,231.099381 181.134321,231.998337 C181.594306,232.897293 182.483906,233.501277 183.494133,233.600508 C183.853504,233.628596 184.195861,233.443977 184.367922,233.129311 C184.539983,232.814644 184.509523,232.428863 184.29018,232.144692 C184.070837,231.86052 183.703691,231.731181 183.353123,231.814582 C183.262809,231.819509 183.17715,231.774448 183.1305,231.69747 C183.08385,231.620493 183.08385,231.524207 183.1305,231.447229 C183.17715,231.370252 183.262809,231.32519 183.353123,231.330118 C183.862844,231.290863 184.353823,231.529646 184.635222,231.953654 C184.91662,232.377662 184.944053,232.920016 184.706856,233.369908 C184.46966,233.8198 184.005248,234.106268 183.494133,234.117964 C182.363657,234.039857 181.330278,233.455326 180.685786,232.529421 C180.041294,231.603515 179.855632,230.436719 180.181224,229.358494 C180.798625,227.520262 182.286551,226.101179 184.160649,225.563186 C186.034748,225.025192 188.055333,225.437094 189.564664,226.664809 C188.974413,227.984555 189.339828,229.533223 190.458967,230.454964 C190.318109,230.821991 190.118287,231.163908 189.867275,231.467411 C190.51673,231.453912 191.166467,231.469781 191.814469,231.514971 C191.435672,232.074458 191.00383,232.596641 190.524852,233.074374 C190.822958,233.337991 191.19536,233.504325 191.591712,233.550892 C191.777799,235.05295 191.843805,236.567293 191.78911,238.079707 C191.868256,238.479237 192.133287,238.817887 192.503549,238.992599 C192.873811,239.16731 193.305509,239.157419 193.667268,238.965934 C196.326197,235.90098 198.514888,232.462757 200.162505,228.762538 C201.488099,225.917176 202.260139,222.848487 202.437941,219.718174 C202.415808,217.769673 201.82539,215.869347 200.738204,214.247374 C199.138245,211.708695 196.295484,210.211816 193.282355,210.321433 C192.603402,210.321853 191.999405,210.749901 191.778075,211.387508 C191.556744,212.025115 191.766775,212.731998 192.301166,213.148033 C192.835557,213.564067 193.576735,213.59772 194.147104,213.231846 C194.217158,213.125688 194.343606,213.070507 194.4697,213.091067 C194.595794,213.111628 194.697849,213.204068 194.730063,213.326901 C194.762278,213.449735 194.718602,213.57989 194.618636,213.658954 C193.528056,214.34423 192.088998,214.068466 191.333281,213.029388 C190.928691,212.349285 190.929477,211.50418 191.335331,210.82482 C191.741185,210.145461 192.487562,209.739887 193.282355,209.766828 C197.605887,209.782373 201.497972,212.37318 203.15635,216.339555 C204.016106,219.151869 204.010165,222.15525 203.13929,224.964186 C201.421832,230.132513 198.805223,234.961592 195.408367,239.231981 C195.184373,239.648144 195.214636,240.154006 195.486671,240.540887 C195.758705,240.927769 196.226413,241.13011 196.696855,241.06444 C197.646006,241.044196 198.592887,240.963745 199.531712,240.823578 C214.530342,238.078991 227.610543,229.046216 235.425417,216.036517 C243.240291,203.026818 245.031573,187.302504 240.340919,172.887038 Z M230.439759,310.270853 C234.912461,327.693771 227.075083,345.961278 211.323457,354.827489 C195.571831,363.693701 175.824552,360.952934 163.157477,348.142431 C150.490403,335.331928 148.054772,315.638609 157.216683,300.108068 C161.186168,298.162389 165.877706,298.382515 169.636359,300.690796 C171.842113,302.228694 173.266722,304.644772 173.541131,307.313126 C174.300121,312.170252 173.69856,317.1445 171.802546,321.689331 C171.317561,322.489835 170.415896,322.944866 169.481493,322.860664 C168.54709,322.776462 167.74452,322.167857 167.415528,321.294002 C167.086537,320.420148 167.289068,319.43495 167.93688,318.757922 C168.536416,318.22797 168.867155,317.459627 168.838627,316.663062 C168.810099,315.866496 168.425291,315.125077 167.789461,314.641609 C168.752666,313.735794 169.360463,312.51857 169.503657,311.208619 C170.137497,313.253936 170.187819,315.435456 169.649016,317.510097 C169.472247,318.138686 169.180758,318.729768 168.789128,319.253784 C168.315303,319.642279 168.120278,320.274596 168.29386,320.859558 C168.467441,321.44452 168.975971,321.868705 169.585278,321.936779 C170.194584,322.004853 170.786523,321.703618 171.088512,321.171788 C173.018609,316.7902 173.620509,311.945445 172.820139,307.233752 C172.517216,304.731435 171.092983,302.502158 168.945599,301.16914 C165.444723,299.451269 161.367943,299.313265 157.750882,300.790185 C152.410657,311.4254 152.032702,323.848712 156.717286,334.764263 C161.40187,345.679814 170.67546,353.984223 182.077807,357.474361 C183.036758,357.725123 184.01305,357.905526 184.998829,358.01412 C185.706347,358.000446 186.308094,357.494365 186.439822,356.802216 C186.481661,356.474529 186.490551,356.143577 186.466359,355.814277 C186.404821,354.89253 186.217379,353.983693 185.909203,353.11283 C186.101282,352.828546 186.286775,352.539918 186.465534,352.247175 C185.970976,352.247581 185.477064,352.21376 184.987371,352.145958 C185.330595,351.756107 185.696565,351.386673 186.083376,351.039577 C185.833293,350.913522 185.565685,350.825208 185.28933,350.777531 C185.156677,349.29863 185.63603,347.828554 186.616633,346.706969 C184.342794,345.024057 181.151683,345.342513 179.25083,347.442035 C178.141674,348.670328 178.088373,350.51548 179.124928,351.800511 C179.605026,352.383001 180.366541,352.658127 181.111552,352.518256 C181.936135,352.319386 182.580023,351.677429 182.778311,350.856494 C182.855162,350.477747 182.714527,350.088305 182.413221,349.845502 C182.111916,349.6027 181.699727,349.546657 181.343179,349.700015 C181.27667,349.741999 181.192263,349.743605 181.124367,349.70418 C181.056472,349.664756 181.01643,349.590885 181.020567,349.512685 C181.024703,349.434484 181.072327,349.365017 181.144022,349.332602 C181.733853,349.110648 182.399412,349.281373 182.806583,349.759072 C183.213753,350.236772 183.274602,350.91828 182.958583,351.461475 C182.658985,352.06637 182.124516,352.523897 181.478847,352.728189 C180.833177,352.932481 180.13226,352.865834 179.53828,352.543669 C177.811531,351.389821 177.332642,349.071356 178.46088,347.327616 C179.375893,345.825952 180.973491,344.866484 182.733623,344.761539 C184.493755,344.656593 186.191309,345.419591 187.273697,346.802162 C186.502112,347.759917 186.463704,349.110095 187.179697,350.106538 C187.041518,350.37319 186.860863,350.615881 186.644761,350.825168 C187.137541,350.869055 187.62801,350.935242 188.114645,351.023524 C187.779805,351.416324 187.408019,351.776408 187.004373,352.098848 C187.20737,352.323642 187.474968,352.480841 187.770992,352.549193 C187.77493,353.960924 187.666474,355.37099 187.446642,356.766158 C187.398526,357.019554 187.48889,357.279056 187.684103,357.44808 C187.879316,357.617104 188.150142,357.670337 188.395781,357.587966 C191.241544,355.683076 193.522475,353.05351 195.00011,349.974179 C195.894875,348.056078 196.446909,345.998091 196.631393,343.892746 C196.729856,342.43068 196.400253,340.972491 195.682507,339.6948 C194.516589,337.321264 192.164506,335.750598 189.513579,335.575335 C188.985397,335.562476 188.490116,335.832054 188.21552,336.281858 C187.940925,336.731662 187.929059,337.292823 188.184421,337.752577 C188.462569,338.087243 188.898805,338.249213 189.329934,338.177892 C189.537687,338.140643 189.732322,338.050513 189.894888,337.916278 C189.973068,337.844875 190.084477,337.822377 190.184228,337.857848 C190.283978,337.893319 190.355642,337.980918 190.370347,338.08535 C190.385051,338.189783 190.340374,338.29385 190.254316,338.355624 C189.756503,338.655466 189.155426,338.733568 188.597914,338.570851 C188.039452,338.392302 187.623782,337.924919 187.513458,337.35148 C187.391592,336.796812 187.535912,336.216727 187.903989,335.781771 C188.272065,335.346815 188.822057,335.10643 189.392267,335.13129 C193.108004,335.406325 196.290345,337.873341 197.465678,341.389965 C197.707105,342.164335 197.790019,342.979341 197.709521,343.786834 C197.559902,345.93174 197.025859,348.033534 196.13264,349.992845 C194.671932,352.746631 192.717376,355.212033 190.36569,357.267056 C190.24853,357.409261 190.126546,357.547465 189.99995,357.681428 C189.845585,357.862613 189.817171,358.118735 189.928162,358.328506 C190.039153,358.538277 190.267269,358.659586 190.504484,358.634987 C191.245948,358.670918 191.989064,358.659674 192.729293,358.601324 C204.318816,357.769639 214.996748,352.008478 222.030869,342.79198 C229.06499,333.575481 231.772792,321.797907 229.461416,310.472845 C227.606595,308.714863 225.374589,307.398952 222.933126,306.623998 C220.721727,306.049846 218.369014,306.391206 216.41075,307.570343 C214.452485,308.749481 213.05537,310.66602 212.537556,312.883524 C211.724655,316.968105 212.218646,321.200738 213.950019,324.985832 C214.191261,325.614151 214.787036,326.037167 215.462998,326.060085 C216.13896,326.083003 216.764041,325.70138 217.050398,325.090949 C217.336756,324.480517 217.228867,323.759638 216.776412,323.260268 C216.364988,322.712578 216.058578,322.093969 215.872506,321.435375 C215.40327,319.35025 215.525327,317.175162 216.225075,315.152474 C216.243519,316.469676 216.733378,317.736144 217.606645,318.724348 C216.968719,319.20443 216.579165,319.942637 216.544542,320.737041 C216.509919,321.531446 216.833851,322.298905 217.427729,322.829489 C218.016238,323.552838 218.136531,324.548274 217.737386,325.391922 C217.338241,326.235569 216.489957,326.778843 215.553748,326.790408 C214.617539,326.801972 213.758293,326.279791 213.341893,325.446217 C211.834058,321.909356 211.245346,318.049931 211.62995,314.223207 C211.79371,311.339753 213.309917,308.697691 215.723715,307.089631 C218.137513,305.48157 221.168077,305.094594 223.906248,306.044795 C226.332543,307.03173 228.549095,308.465459 230.439757,310.270853 L230.439759,310.270853 Z M223.155959,84.2178815 C220.820064,85.3916128 218.281183,86.1146372 215.672354,86.3490678 C212.776016,86.4571858 209.991014,85.2010684 208.152839,82.9575458 C206.314664,80.7140233 205.637172,77.7441111 206.323607,74.9387719 C207.074635,71.16681 208.76601,67.6481457 211.242038,64.7066778 C211.883957,64.0312707 212.858328,63.7831249 213.750248,64.0679052 C214.642169,64.3526855 215.294549,65.1202351 215.429594,66.0437183 C215.564639,66.9672015 215.158565,67.8839705 214.384285,68.4036494 C213.661228,68.7374169 213.127068,69.376633 212.927917,70.1464485 C212.728765,70.9162639 212.885466,71.7361089 213.355156,72.3817257 C212.231124,73.0714316 211.39239,74.1393395 210.989639,75.3935935 C210.911843,73.2547013 211.431054,71.1389681 212.489418,69.2821446 C212.859914,68.7067304 213.333799,68.2047368 213.887375,67.8012674 C214.466061,67.4560024 214.780001,66.7981661 214.684629,66.1306845 C214.589256,65.463203 214.103064,64.9154988 213.449938,64.7397835 C212.796812,64.5640681 212.103391,64.7944123 211.688988,65.3247451 C208.926613,68.4382441 207.216705,72.3415014 206.79987,76.4852753 C206.646723,78.7572792 207.422449,80.9985514 208.9504,82.6987074 C210.478352,84.3988635 212.628458,85.4131743 214.911095,85.5106601 C217.472452,85.4833827 219.991666,84.877546 222.279424,83.738677 C227.800932,73.5842475 228.654877,61.529612 224.622757,50.6592527 C220.590637,39.7888933 212.063681,31.1575428 201.223725,26.9737495 C200.532901,26.7015275 199.825543,26.4735091 199.105972,26.2910871 C198.886314,26.1982076 198.632699,26.2475213 198.465226,26.4156754 C198.297754,26.5838296 198.250044,26.8370679 198.34469,27.0554684 C198.426588,27.2205904 198.502835,27.3884202 198.573298,27.5586662 C200.221396,30.2114608 201.369733,33.1405937 201.961487,36.201122 C202.242829,38.3359724 202.139032,40.5020664 201.655004,42.5969954 C201.495896,43.3927397 201.17832,44.1478918 200.721038,44.8178398 C198.5689,47.8371697 194.804327,49.2659623 191.170537,48.442603 C190.617975,48.299664 190.162296,47.9089806 189.937472,47.385415 C189.712648,46.8618495 189.744234,46.2649156 190.022944,45.7701141 C190.296105,45.2539878 190.830262,44.9285575 191.416525,44.9210881 C191.99725,44.9284819 192.549228,45.178909 192.937623,45.6111963 C193.00186,45.6954315 193.014159,45.8080138 192.969564,45.903584 C192.924969,45.9991542 192.830824,46.0619725 192.725062,46.0667294 C192.619299,46.0714864 192.519336,46.0173986 192.465448,45.926258 C192.349232,45.7503589 192.189453,45.6072609 192.001669,45.5108986 C191.61023,45.3166448 191.1457,45.3439936 190.781859,45.5827138 C190.403236,45.9477184 190.250516,46.4878288 190.381603,46.9982623 C190.51269,47.5086958 190.907513,47.9113005 191.416376,48.0534289 C194.002711,48.6608799 196.711237,47.8465272 198.520165,45.9175846 C199.58011,44.9055722 200.321645,43.6074651 200.65495,42.1804969 C201.094071,40.1132073 201.167855,37.9837457 200.872986,35.8878522 C200.360225,32.5110548 198.947771,29.329509 196.78329,26.6758331 C196.572467,26.5252429 196.297912,26.4969678 196.061811,26.6015316 C195.82571,26.7060955 195.663422,26.9278384 195.63535,27.1842302 C195.437669,28.582709 195.129123,29.9628714 194.712606,31.3117647 C194.409534,31.2905811 194.107668,31.3626728 193.847817,31.5182943 C194.139553,31.9446599 194.389816,32.3977093 194.595181,32.8712436 C194.103999,32.8133895 193.61561,32.7332854 193.131531,32.6311802 C193.277,32.8945046 193.378806,33.1794098 193.432985,33.4748094 C192.456946,34.2183763 192.098922,35.5207872 192.556772,36.6622826 C191.117455,37.6679822 189.270997,37.9013244 187.618457,37.2863516 C185.965918,36.6713787 184.718648,35.2867426 184.282661,33.5831707 C183.713542,31.5857581 184.84936,29.5086135 186.83801,28.9100357 C187.500227,28.7756107 188.190003,28.9168039 188.747731,29.3009447 C189.305459,29.6850855 189.682807,30.2788845 189.792459,30.9449426 C189.935855,31.5567976 189.678411,32.1907367 189.149366,32.5285177 C188.620321,32.8662987 187.933929,32.8349733 187.434764,32.4502671 C187.375678,32.3983075 187.350446,32.3179518 187.369354,32.2419587 C187.388262,32.1659656 187.448151,32.1070302 187.524606,32.0891788 C187.601062,32.0713274 187.681312,32.0975422 187.73264,32.1571361 C188.02877,32.4080378 188.439334,32.4749562 188.798462,32.3308563 C189.157591,32.1867564 189.405943,31.8554488 189.443185,31.470782 C189.493579,30.6277444 189.065516,29.8255832 188.335107,29.3943183 C187.663544,29.0427383 186.854865,29.0831978 186.225442,29.4998681 C184.858472,30.4256902 184.369973,32.2058011 185.071547,33.7047095 C186.275501,36.2682489 189.234068,37.5057797 191.900587,36.5612092 C191.290751,35.201932 191.262152,33.6559414 191.821397,32.2804461 C192.099617,32.3156505 192.381352,32.309436 192.657363,32.2620062 C192.388934,31.8169844 192.146968,31.3566939 191.932722,30.8835283 C192.420841,30.961861 192.90306,31.0739243 193.375889,31.2189071 C193.290531,30.8866911 193.19753,30.5564421 193.09696,30.228422 C193.646287,29.4857136 194.091256,28.6713911 194.419598,27.8079117 C194.539011,27.5000735 194.627271,27.1809832 194.683066,26.8553821 C194.759458,26.1549635 194.331969,25.4950613 193.659364,25.2751266 C192.684909,25.0907618 191.698531,24.9778425 190.708167,24.937277 C178.78363,24.9411891 167.487278,30.1713993 159.81599,39.240353 C152.144701,48.3093067 148.873917,60.3002819 150.871363,72.0321191 C153.898566,74.5020312 157.837559,75.5619925 161.687721,74.9427413 C164.13101,74.2958047 166.144789,72.5803416 167.166082,70.27593 C169.309046,66.0041209 170.149915,61.1950802 169.585207,56.4406409 C169.451905,55.8437569 168.973904,55.3826178 168.371318,55.2695736 C167.768732,55.1565295 167.158403,55.4134994 166.82138,55.9221512 C166.484357,56.430803 166.485989,57.0925101 166.825524,57.6025627 C167.046835,58.2181832 167.152771,58.8686605 167.138035,59.5214659 C167.046728,61.6629858 166.36079,63.734471 165.156653,65.5051008 C165.402709,64.210522 165.177351,62.8687821 164.521068,61.7209328 C165.270468,61.4444888 165.855232,60.8479734 166.115407,60.0945548 C166.375581,59.3411361 166.283936,58.5096675 165.86554,57.8275851 C165.443978,56.9907373 165.53834,55.9893738 166.108447,55.2498905 C166.678553,54.5104072 167.623994,54.1630444 168.542186,54.3557145 C169.460378,54.5483847 170.189607,55.247154 170.419355,56.1544758 C170.903743,61.0550606 170.024688,65.9878363 167.878777,70.4108218 C166.836207,72.8823524 164.767453,74.7763437 162.208443,75.6021427 C157.939149,76.710639 153.388251,75.5494735 150.161074,72.5282469 C145.940187,54.9976326 154.027161,36.8769273 169.886173,28.3296766 C185.745185,19.7824259 205.430925,22.9349636 217.902051,36.0190935 C230.373176,49.1032234 232.527195,68.8639542 223.155961,84.2178824 L223.155959,84.2178815 Z M90.1536205,155.634541 C90.7718071,158.1746 90.9051764,160.811055 90.5467396,163.405755 C90.0005524,166.252182 88.1501401,168.683239 85.5506195,169.969619 C82.9510988,171.255999 79.9049027,171.248042 77.3258785,169.948136 C73.8195363,168.36785 70.7715317,165.928298 68.4624385,162.854044 C67.9487423,162.076644 67.9261424,161.071425 68.4042622,160.266426 C68.882382,159.461427 69.777013,158.998429 70.7072059,159.074583 C71.6373989,159.150738 72.4393244,159.752632 72.7715087,160.62397 C72.9340695,161.403576 73.4367426,162.067838 74.1420284,162.435056 C74.8473142,162.802274 75.6813967,162.834014 76.4161237,162.521595 C76.8353001,163.771968 77.6871637,164.829432 78.8186719,165.504007 C76.7170991,165.098663 74.772389,164.116823 73.2012358,162.667891 C72.723913,162.17745 72.3413864,161.602786 72.0727853,160.972638 C71.8665455,160.331116 71.2961906,159.877241 70.6243625,159.820018 C69.9525343,159.762796 69.3094983,160.11332 68.9913651,160.710179 C68.6732319,161.307039 68.7416867,162.034503 69.1652067,162.557584 C71.5775078,165.949544 74.9960792,168.493669 78.9398811,169.831967 C81.119203,170.492279 83.4775319,170.240611 85.4778274,169.134273 C87.4781228,168.027935 88.9501055,166.161106 89.5585743,163.958903 C90.108176,161.457056 90.0845667,158.866126 89.4895205,156.380813 C80.8374173,148.716572 69.2838373,145.17281 57.7850548,146.656289 C46.2862724,148.139767 35.957995,154.506547 29.4429728,164.127526 C29.022326,164.739408 28.6410308,165.377344 28.3014162,166.037435 C28.1615048,166.23057 28.1525035,166.488779 28.2786748,166.689785 C28.4048461,166.890792 28.6408615,166.994245 28.8749552,166.951154 C29.054268,166.9085 29.2349483,166.871961 29.4166817,166.8416 C32.3722267,165.832492 35.4846058,165.372498 38.5998085,165.48438 C40.743231,165.690486 42.8304589,166.278888 44.7628124,167.221767 C45.5023703,167.5558 46.166729,168.035109 46.7166402,168.631376 C49.1744592,171.407556 49.7197873,175.397052 48.1001056,178.752492 C47.8365308,179.258738 47.3533551,179.614854 46.7926341,179.716139 C46.231913,179.817424 45.6573839,179.652367 45.2379602,179.269494 C44.79651,178.887231 44.5995797,178.293558 44.7241821,177.720641 C44.8620212,177.156463 45.2301979,176.674966 45.7387756,176.393769 C45.835302,176.350127 45.9477654,176.363469 46.0308544,176.42842 C46.1139435,176.493371 46.1539739,176.599233 46.1348175,176.703355 C46.1156612,176.807477 46.0404729,176.892711 45.9395461,176.924715 C45.7420123,176.998384 45.5666394,177.121879 45.4305046,177.283173 C45.153175,177.620881 45.0753263,178.079658 45.2260817,178.487874 C45.4965595,178.938901 45.9884724,179.209206 46.5153117,179.196301 C47.0421509,179.183396 47.5232528,178.889258 47.7762076,178.42541 C48.9498886,176.042009 48.7656936,173.219712 47.2931099,171.023229 C46.5454711,169.762798 45.4474433,168.748258 44.1320256,168.102497 C42.2165012,167.209592 40.1582154,166.658674 38.0497084,166.474513 C34.644112,166.214517 31.226376,166.875078 28.1538114,168.387137 C27.9596558,168.558681 27.8703439,168.819839 27.9191167,169.07341 C27.9678894,169.326981 28.1474424,169.534991 28.3909479,169.620019 C29.7091154,170.127223 30.9844963,170.73833 32.2051219,171.447606 C32.1163046,171.738146 32.1186436,172.048492 32.2118228,172.33669 C32.6928871,172.148343 33.1906218,172.006408 33.6982166,171.912828 C33.5313532,172.378407 33.3434386,172.836259 33.1350561,173.284963 C33.4243551,173.202457 33.7248594,173.167351 34.0248758,173.18101 C34.5298239,174.2993 35.7183164,174.941126 36.9335491,174.751791 C37.5896968,176.380452 37.4016957,178.232076 36.4307441,179.703923 C35.4597924,181.175769 33.8300699,182.079595 32.0720846,182.121188 C29.9978416,182.226401 28.2294375,180.652438 28.0935502,178.580106 C28.111537,177.904622 28.4042773,177.264286 28.9040341,176.807266 C29.4037909,176.350245 30.0672555,176.116145 30.7409089,176.159134 C31.3693392,176.15705 31.9291183,176.550501 32.1392328,177.141971 C32.3493472,177.733441 32.1644201,178.395194 31.6772862,178.795025 C31.6133669,178.840909 31.5293946,178.847418 31.4596026,178.8119 C31.3898106,178.776382 31.3458578,178.70477 31.3456627,178.626258 C31.3454676,178.547747 31.3890627,178.475451 31.4586755,178.438844 C31.7697615,178.206744 31.9273216,177.821757 31.8677013,177.439417 C31.808081,177.057077 31.5411319,176.740562 31.1747015,176.617744 C30.3646072,176.378999 29.4867123,176.615644 28.9021943,177.230319 C28.4085565,177.805582 28.2660656,178.602636 28.5304673,179.309658 C29.1250595,180.849856 30.7496579,181.726273 32.3679692,181.379862 C35.1366359,180.783436 37.0079817,178.17908 36.6874566,175.368422 C35.2258345,175.656857 33.7130341,175.336951 32.4985954,174.48262 C32.5954834,174.21945 32.6528047,173.943538 32.6686795,173.663932 C32.1746803,173.825373 31.6717564,173.957595 31.1625233,174.05991 C31.3486512,173.601922 31.566318,173.157271 31.8139483,172.729175 C31.4710455,172.737613 31.1283401,172.753941 30.7861039,172.778144 C30.1860026,172.075824 29.4926475,171.459077 28.7251597,170.94491 C28.4520736,170.759308 28.1610158,170.601531 27.8563108,170.473922 C27.1910286,170.241927 26.4518753,170.510015 26.0862744,171.115906 C25.6874302,172.023913 25.3555183,172.959608 25.0932089,173.915465 C22.4145837,185.535256 24.9696177,197.718625 32.0804702,207.233369 C39.1913227,216.748114 50.1392036,222.632451 62.0196823,223.325288 C65.1072632,220.931281 67.0261384,217.331684 67.2888565,213.4409 C67.2081213,210.914703 65.9896271,208.566642 63.9740184,207.053145 C60.2937575,204.004157 55.7971266,202.10304 51.0375116,201.583759 C50.4259393,201.579375 49.8690922,201.941392 49.6233931,202.503104 C49.377694,203.064815 49.4907835,203.717308 49.9105849,204.160115 C50.3303863,204.602922 50.9755009,204.750184 51.5488598,204.534087 C52.1984861,204.456933 52.8561222,204.500038 53.4888813,204.661245 C55.5549747,205.231949 57.4190653,206.366289 58.8734421,207.937869 C57.6673937,207.406903 56.3093481,207.324659 55.0432866,207.705912 C54.9425062,206.913533 54.4928227,206.209569 53.8172406,205.786581 C53.1416586,205.363592 52.3108848,205.265849 51.5521654,205.520086 C50.6419352,205.742594 49.6874635,205.425392 49.0951791,204.70355 C48.5028947,203.981708 48.3771128,202.982359 48.7713931,202.131041 C49.1656734,201.279724 50.0105741,200.726374 50.9463234,200.706617 C55.8302701,201.337036 60.4388748,203.303193 64.2657743,206.389061 C66.4394326,207.960883 67.8195128,210.40267 68.0484944,213.081858 C68.168198,217.491087 66.0130637,221.664141 62.3433142,224.128976 C44.3125152,224.298153 28.4754158,212.342176 23.7147321,194.966916 C18.9540484,177.591656 26.4541147,159.119627 42.0082921,149.911424 C57.5624694,140.703222 77.3012828,143.049608 90.1536218,155.63454 L90.1536205,155.634541 Z M294.962565,206.068282 C295.308865,203.190689 296.985188,200.636476 299.488643,199.171896 C301.992098,197.707316 305.031429,197.502761 307.694848,198.619597 C311.302884,199.951444 314.513638,202.172435 317.031556,205.078126 C317.598229,205.817799 317.690895,206.818993 317.270093,207.655382 C316.849292,208.491772 315.989138,209.016049 315.055898,209.004967 C314.122659,208.993885 313.280701,208.449396 312.888544,207.603353 C312.671997,206.836986 312.124212,206.209406 311.395028,205.892281 C310.665844,205.575156 309.83158,205.601676 309.120436,205.964586 C308.615059,204.746499 307.691505,203.751034 306.515697,203.157033 C308.640426,203.414791 310.648889,204.258583 312.317287,205.594388 C312.827659,206.050338 313.24934,206.596918 313.561244,207.206794 C313.811731,207.832367 314.412358,208.24535 315.086541,208.255569 C315.760724,208.265788 316.377743,207.871261 316.653466,207.253664 C316.929189,206.636067 316.810156,205.91515 316.351179,205.422886 C313.708143,202.207463 310.12043,199.908002 306.09288,198.84807 C303.872806,198.341389 301.537777,198.756953 299.619529,200.000129 C297.70128,201.243306 296.363107,203.208267 295.909738,205.447551 C295.535995,207.981641 295.740281,210.564613 296.507244,213.002363 C305.672902,220.044395 317.445538,222.773587 328.812828,220.491608 C340.180118,218.209628 350.039112,211.137894 355.867138,201.085886 C356.244078,200.446151 356.579944,199.783172 356.872686,199.100998 C356.998784,198.898574 356.989751,198.640366 356.849866,198.448651 C356.70998,198.256935 356.467323,198.170197 356.236806,198.229513 C356.060905,198.284571 355.883214,198.333625 355.704041,198.376589 C352.826087,199.589407 349.753378,200.265389 346.637959,200.371085 C344.48538,200.314999 342.362192,199.873629 340.368774,199.06784 C339.607716,198.78621 338.911541,198.354412 338.321376,197.797957 C335.675888,195.199988 334.853595,191.258251 336.235267,187.798001 C336.462886,187.274602 336.920043,186.88565 337.472333,186.745497 C338.024623,186.605345 338.609267,186.729923 339.054376,187.082606 C339.521417,187.433144 339.75928,188.011633 339.674945,188.591846 C339.576797,189.164265 339.243105,189.670272 338.755381,189.98626 C338.662134,190.036529 338.549014,190.031065 338.461597,189.972068 C338.37418,189.913072 338.326862,189.81026 338.338709,189.705055 C338.350555,189.59985 338.419615,189.50958 338.518063,189.470613 C338.709977,189.383344 338.876308,189.247917 339.00086,189.07752 C339.253956,188.721288 339.299613,188.258199 339.120749,187.861493 C338.819468,187.430432 338.309898,187.1951 337.785242,187.244724 C337.260586,187.294348 336.801175,187.621329 336.581192,188.101693 C335.576628,190.56116 335.957248,193.363733 337.579463,195.452143 C338.413204,196.657352 339.579328,197.592825 340.936587,198.145254 C342.909732,198.902364 345.001434,199.308361 347.117651,199.344992 C350.533088,199.366792 353.89642,198.469431 356.856024,196.746724 C357.03774,196.562054 357.108617,196.295302 357.042275,196.045751 C356.975933,195.796199 356.782307,195.601222 356.533464,195.533387 C355.183126,195.119369 353.868223,194.598717 352.601095,193.976315 C352.669429,193.680287 352.645447,193.37086 352.532391,193.089864 C352.065637,193.31131 351.579015,193.487619 351.079185,193.616379 C351.213165,193.140294 351.368683,192.670449 351.545258,192.208303 C351.262419,192.310788 350.965096,192.366771 350.664857,192.374073 C350.083131,191.293731 348.852763,190.736373 347.653697,191.010017 C346.885538,189.431094 346.943919,187.570866 347.809834,186.034875 C348.67575,184.498884 350.238455,183.483575 351.989256,183.319453 C354.051107,183.069805 355.924998,184.516576 356.205113,186.574381 C356.234289,187.249474 355.986929,187.90867 355.52027,188.399439 C355.053611,188.890207 354.408093,189.170018 353.733081,189.174126 C353.106327,189.220041 352.520466,188.866597 352.269605,188.291225 C352.018743,187.715853 352.157058,187.042812 352.615115,186.609974 C352.675677,186.559743 352.758991,186.547392 352.831091,186.577955 C352.90319,186.608518 352.952031,186.67689 352.957703,186.755197 C352.963374,186.833504 352.924928,186.908664 352.858039,186.950038 C352.563901,187.203273 352.43358,187.598313 352.519726,187.975563 C352.605871,188.352812 352.894249,188.649935 353.268354,188.746893 C354.093129,188.928547 354.952378,188.63124 355.492595,187.977288 C355.944902,187.368992 356.031446,186.56394 355.718369,185.877084 C355.017786,184.382114 353.33601,183.621159 351.745805,184.079614 C349.025487,184.867719 347.340371,187.596269 347.856176,190.377722 C349.294118,189.988032 350.825549,190.201631 352.096624,190.969166 C352.01833,191.238453 351.980395,191.517692 351.984063,191.797724 C352.465598,191.602217 352.958073,191.435235 353.458928,191.297646 C353.305202,191.767502 353.119082,192.226254 352.901918,192.670581 C353.243397,192.638244 353.584128,192.59805 353.923842,192.550032 C354.571473,193.208781 355.306162,193.77566 356.107646,194.235037 C356.393014,194.401137 356.694369,194.538227 357.007233,194.64427 C357.687078,194.829291 358.40573,194.510296 358.728175,193.880378 C359.062708,192.946761 359.328541,191.990192 359.523534,191.018366 C361.385079,179.240028 357.9864,167.264568 350.229154,158.269029 C342.471908,149.273489 331.140225,144.167172 319.240357,144.304763 C316.327295,146.908317 314.664189,150.633 314.673518,154.532632 C314.930275,157.047043 316.309594,159.304387 318.425869,160.673595 C322.309851,163.458434 326.928144,165.041251 331.712388,165.227253 C332.322776,165.188965 332.853014,164.788987 333.058932,164.211504 C333.264849,163.634022 333.10652,162.991007 332.656852,162.578563 C332.207185,162.166118 331.553369,162.064216 330.996481,162.319782 C330.353819,162.442064 329.694778,162.444938 329.052315,162.328262 C326.951444,161.903072 325.012767,160.901528 323.452305,159.435228 C324.692454,159.880771 326.052928,159.868083 327.289311,159.399443 C327.44512,160.182861 327.942814,160.853742 328.646256,161.228574 C329.349699,161.603406 330.185267,161.642959 330.924403,161.336415 C331.816895,161.050955 332.791169,161.300804 333.432363,161.979572 C334.073558,162.65834 334.268745,163.64648 333.93481,164.523228 C333.600875,165.399975 332.796632,166.010914 331.86454,166.095897 C326.948515,165.807701 322.213984,164.167813 318.181148,161.356414 C315.90314,159.940047 314.356091,157.600478 313.940776,154.94379 C313.513792,150.553651 315.372579,146.240428 318.861451,143.525608 C336.836527,142.099078 353.469054,152.921191 359.430178,169.922037 C365.391302,186.922883 359.198049,205.873094 344.324093,216.14387 C329.450136,226.414647 309.59573,225.450887 295.896818,213.793144 C295.102953,211.302395 294.785999,208.681665 294.962565,206.068282 Z M313.392396,248.649146 C326.632721,260.825227 330.00894,280.414189 321.6274,296.42897 C313.24586,312.443751 295.191669,320.90029 277.591066,317.055481 C259.990464,313.210673 247.222022,298.021005 246.447308,280.006062 C248.716706,276.212343 252.77125,273.841761 257.180701,273.730539 C259.868201,273.818989 262.378869,275.069385 264.062298,277.157802 C267.34422,280.817955 269.548879,285.317343 270.43404,290.161603 C270.463283,291.097103 269.954911,291.969806 269.125395,292.408101 C268.295879,292.846395 267.291317,292.773088 266.539466,292.219393 C265.787616,291.665699 265.420895,290.729136 265.59546,289.808508 C265.809641,289.037523 265.668552,288.213003 265.210786,287.560485 C264.75302,286.907966 264.026487,286.495741 263.229919,286.436569 C263.544389,285.152289 263.391182,283.800409 262.797825,282.623802 C264.443367,283.993936 265.673712,285.796105 266.351764,287.829498 C266.545867,288.452953 266.62333,289.107432 266.580281,289.760206 C266.394488,290.344089 266.57531,290.980612 267.039481,291.376664 C267.503652,291.772715 268.161169,291.851501 268.709252,291.576741 C269.257336,291.301981 269.589713,290.72695 269.553327,290.116445 C268.785659,285.39053 266.651812,280.999559 263.414393,277.483913 C261.797481,275.550277 259.388867,274.456341 256.861906,274.507927 C252.990205,274.973913 249.495967,277.078547 247.266832,280.287189 C248.580496,292.115126 255.029736,302.74004 264.903595,309.343185 C274.777453,315.946329 287.077845,317.860233 298.541523,314.577146 C299.482342,314.26517 300.399384,313.884742 301.285272,313.438924 C301.871199,313.042114 302.100235,312.289943 301.83374,311.637714 C301.690359,311.340105 301.517565,311.057704 301.317926,310.794705 C300.764296,310.055179 300.112107,309.395052 299.379342,308.83253 C299.385601,308.489496 299.383971,308.146406 299.374451,307.803531 C298.959901,308.073227 298.527251,308.313867 298.079633,308.523709 C298.155157,308.009819 298.260876,307.500664 298.396242,306.998893 C298.11785,307.029379 297.845316,307.101062 297.587578,307.211591 C296.670859,306.043528 296.272217,304.549544 296.483761,303.074829 C293.66018,302.901842 291.157332,304.906925 290.706625,307.703012 C290.445384,309.337235 291.405625,310.913739 292.974831,311.426908 C293.694721,311.653945 294.483226,311.469935 295.031865,310.946866 C295.615107,310.33098 295.805481,309.441903 295.524667,308.645414 C295.382839,308.285913 295.052787,308.035895 294.667851,307.996367 C294.282915,307.956838 293.906701,308.134331 293.6912,308.457138 C293.658287,308.528571 293.588372,308.57589 293.509958,308.579804 C293.431543,308.583719 293.357729,308.543574 293.318607,308.475736 C293.279485,308.407899 293.281591,308.323701 293.324066,308.257468 C293.697855,307.750076 294.349023,307.530769 294.950679,307.70964 C295.552334,307.888512 295.974543,308.426932 296.005351,309.05461 C296.083537,309.725091 295.884481,310.399898 295.454242,310.922888 C295.024003,311.445879 294.399866,311.77173 293.726249,311.825045 C291.649645,311.797801 289.985289,310.114195 289.981799,308.037289 C289.931329,306.279536 290.748624,304.604744 292.167638,303.558093 C293.586651,302.511441 295.425899,302.226791 297.086667,302.796802 C296.961193,304.020278 297.66434,305.173552 298.807524,305.619281 C298.836867,305.918171 298.817536,306.220101 298.750283,306.513322 C299.187466,306.281741 299.634856,306.070122 300.091064,305.879121 C300.024178,306.390918 299.908487,306.895399 299.745575,307.385661 C300.038255,307.463629 300.348298,307.449723 300.633791,307.345822 C301.405978,308.527654 302.082996,309.769304 302.658492,311.05912 C302.756148,311.297842 302.973269,311.466262 303.229046,311.501697 C303.484822,311.537132 303.740948,311.434275 303.902096,311.231407 C305.251276,308.083918 305.732061,304.636295 305.294187,301.248973 C304.999927,299.152994 304.342042,297.126362 303.350109,295.260194 C302.63639,293.980375 301.565775,292.936949 300.267942,292.256301 C297.9974,290.90069 295.169332,290.864455 292.850622,292.161265 C292.400648,292.43815 292.132093,292.933986 292.146778,293.460779 C292.161464,293.987571 292.457142,294.464663 292.921707,294.711166 C293.337254,294.84035 293.791328,294.738598 294.114059,294.443974 C294.268007,294.299584 294.382154,294.117988 294.445384,293.91687 C294.472062,293.814406 294.553244,293.73486 294.656221,293.710281 C294.759198,293.685701 294.86701,293.720136 294.93622,293.799712 C295.00543,293.879288 295.02464,293.990899 294.98611,294.089577 C294.731915,294.612175 294.270347,295.005047 293.714156,295.172224 C293.148545,295.326639 292.54538,295.161049 292.140537,294.74021 C291.736238,294.341399 291.541338,293.776296 291.613139,293.211043 C291.684939,292.645789 292.015279,292.144638 292.507037,291.85493 C295.773111,290.061857 299.78568,290.397644 302.686688,292.706801 C303.310918,293.224752 303.824339,293.863115 304.19662,294.584178 C305.239339,296.464536 305.936171,298.518109 306.254172,300.647807 C306.528938,303.752885 306.232464,306.885073 305.37942,309.889381 C305.358613,310.072454 305.331579,310.254799 305.298368,310.436098 C305.267588,310.672126 305.383251,310.902404 305.590586,311.017882 C305.79792,311.133361 306.055304,311.110858 306.240852,310.961031 C306.882265,310.587335 307.49937,310.173176 308.088399,309.721082 C317.355223,302.711465 323.172737,292.064131 324.052382,280.503468 C324.932028,268.942805 320.788455,257.590525 312.681902,249.351394 C310.168852,248.887235 307.580237,248.999257 305.110584,249.679042 C302.943243,250.401931 301.15601,251.969599 300.155876,254.025054 C299.155742,256.080509 299.027844,258.448778 299.801308,260.590555 C301.344174,264.458911 304.063727,267.739648 307.577288,269.971121 C308.121818,270.366685 308.851868,270.396973 309.431259,270.048039 C310.010651,269.699105 310.327041,269.038605 310.234736,268.370692 C310.142431,267.70278 309.659328,267.15696 309.007891,266.984578 C308.364549,266.749324 307.770653,266.397397 307.255904,265.946397 C305.726729,264.453228 304.644456,262.562568 304.12968,260.48509 C304.862549,261.579743 305.963147,262.375096 307.233745,262.728258 C306.960206,263.478329 307.035555,264.309607 307.439181,264.994708 C307.842808,265.679808 308.532467,266.147028 309.319513,266.268564 C310.207042,266.554691 310.850081,267.324017 310.974814,268.248949 C311.099546,269.173882 310.684004,270.091518 309.905131,270.611113 C309.126258,271.130708 308.121234,271.160748 307.318015,270.688442 C304.127125,268.543407 301.531396,265.627256 299.769769,262.208425 C298.336668,259.700967 298.169297,256.659362 299.317865,253.99608 C300.466434,251.332798 302.797316,249.35769 305.611256,248.663281 C308.183642,248.169539 310.823464,248.164744 313.392395,248.649147 L313.392396,248.649146 Z M309.212247,125.714393 C306.621485,126.063685 303.985532,125.920739 301.442512,125.293046 C298.668771,124.452318 296.444452,122.357928 295.436843,119.638184 C294.429234,116.918441 294.755561,113.889764 296.317928,111.460745 C298.256069,108.138796 301.000861,105.362491 304.299639,103.387394 C305.126476,102.957773 306.128551,103.040371 306.879163,103.600017 C307.629775,104.159662 307.996722,105.097789 307.823754,106.014926 C307.650785,106.932063 306.968363,107.66668 306.067076,107.905965 C305.274748,107.986145 304.561582,108.41663 304.122653,109.079667 C303.683724,109.742705 303.564973,110.5689 303.798881,111.332259 C302.511541,111.618439 301.370826,112.355101 300.581672,113.409899 C301.20447,111.362209 302.384209,109.530782 303.989434,108.11969 C304.527082,107.696248 305.138582,107.375885 305.793355,107.174624 C306.452921,107.036571 306.963927,106.516784 307.091062,105.854617 C307.218196,105.192451 306.936807,104.516298 306.376472,104.137518 C305.816136,103.758739 305.085501,103.750778 304.521016,104.117301 C300.895483,106.161831 298.007957,109.295742 296.264751,113.078049 C295.380255,115.176411 295.384032,117.548127 296.275222,119.653109 C297.166411,121.75809 298.869149,123.417146 300.995687,124.252474 C303.426378,125.060579 306.005583,125.307925 308.53948,124.975925 C317.066127,117.17235 321.798154,106.052486 321.524752,94.4616291 C321.25135,82.8707724 315.999048,71.9335648 307.111779,64.4485664 C306.547218,63.9662648 305.952633,63.520376 305.331657,63.1136234 C305.154205,62.9542904 304.898351,62.9183483 304.685257,63.0228175 C304.472163,63.1272867 304.344607,63.3511954 304.362992,63.5885109 C304.386669,63.7713 304.404122,63.9548099 304.41532,64.1387213 C305.109962,67.1835561 305.242104,70.3269677 304.805207,73.4134101 C304.376182,75.5235467 303.572829,77.5378359 302.433129,79.3610461 C302.02362,80.0616366 301.477493,80.6722545 300.827011,81.1568263 C297.809127,83.3109912 293.784484,83.4363161 290.616728,81.4747682 C290.140806,81.1597201 289.837147,80.6419672 289.795028,80.0737306 C289.752909,79.5054941 289.977117,78.9513655 290.401734,78.5742606 C290.828047,78.175186 291.439052,78.0413902 291.995806,78.2251962 C292.542486,78.4212528 292.98286,78.8377428 293.209356,79.3729275 C293.242669,79.4734869 293.217644,79.5839396 293.144364,79.6597843 C293.071084,79.735629 292.961617,79.7643745 292.860068,79.7344393 C292.758519,79.7045042 292.681611,79.6208185 292.660332,79.5170991 C292.607714,79.3129469 292.503228,79.1256261 292.357048,78.9733773 C292.050178,78.6622668 291.602052,78.5368893 291.180314,78.6441486 C290.703485,78.8659996 290.383242,79.3269632 290.341006,79.8522653 C290.298771,80.3775674 290.541008,80.8867795 290.975875,81.186834 C293.223536,82.6032187 296.049626,82.715043 298.388003,81.4801213 C299.719679,80.8683291 300.843436,79.8823647 301.623158,78.6416534 C302.711399,76.8299564 303.474448,74.8405328 303.878,72.7628264 C304.492553,69.4030632 304.192861,65.9350025 303.010256,62.7212166 C302.859947,62.5101933 302.609555,62.3940723 302.352275,62.4160724 C302.094994,62.4380725 301.869356,62.594899 301.75934,62.8281828 C301.117129,64.0861119 300.376056,65.2906281 299.543075,66.4304274 C299.263411,66.311727 298.95452,66.2816132 298.658161,66.3441569 C298.795192,66.8422737 298.884322,67.3521179 298.924331,67.8667138 C298.478744,67.6520982 298.043043,67.4173545 297.618579,67.1632112 C297.670393,67.4595497 297.673896,67.7620774 297.628951,68.0590225 C296.464006,68.4443113 295.701464,69.559204 295.762735,70.7875704 C294.074411,71.2698822 292.252581,70.8893636 290.89029,69.7698811 C289.527999,68.6503986 288.799476,66.9351282 288.94187,65.1824257 C289.054051,63.108548 290.80424,61.5143552 292.879424,61.5958301 C293.549328,61.6843256 294.155556,62.0423956 294.557834,62.5871863 C294.960112,63.1319771 295.123579,63.8162772 295.01041,64.4817468 C294.946793,65.1069523 294.496985,65.622538 293.886792,65.769676 C293.276599,65.916814 292.637801,65.6637278 292.29108,65.1374688 C292.252129,65.0691036 292.254433,64.9849109 292.297052,64.9192138 C292.33967,64.8535168 292.415484,64.8172903 292.493586,64.8253029 C292.571688,64.8333156 292.639031,64.8842289 292.668161,64.9572867 C292.866472,65.2909297 293.232881,65.4878687 293.619358,65.4685404 C294.005835,65.4492121 294.34852,65.2168102 294.508968,64.8652252 C294.831083,64.0845243 294.6875,63.1867025 294.137291,62.5411355 C293.616779,61.9900706 292.838985,61.7650454 292.108199,61.9540948 C290.514286,62.3844351 289.472854,63.9085234 289.648208,65.5541792 C289.951961,68.3700223 292.346441,70.503346 295.175206,70.4783705 C295.041133,68.9946057 295.517417,67.5235319 296.494011,66.405048 C296.745612,66.5289139 297.014021,66.6147618 297.290436,66.6597764 C297.181516,66.1516083 297.102589,65.6376185 297.054063,65.1204801 C297.490086,65.3534612 297.909549,65.6164142 298.309416,65.9074363 C298.336867,65.5655299 298.356451,65.2229952 298.368154,64.8801038 C299.129354,64.3567024 299.815198,63.7316132 300.406773,63.0220749 C300.619903,62.7698854 300.80724,62.4969142 300.966,62.2072173 C301.266265,61.5698295 301.076908,60.8067027 300.512552,60.3797717 C299.65121,59.8881999 298.755335,59.4602994 297.832133,59.0995128 C286.555989,55.2209624 274.172288,56.4884908 263.96638,62.5658277 C253.760471,68.6431646 246.764004,78.9159911 244.833114,90.6589661 C246.891267,93.9798748 250.270568,96.2644986 254.112576,96.9324751 C256.633373,97.1162417 259.095939,96.1498618 260.811833,94.3034982 C264.22881,90.9621043 266.589539,86.6888272 267.60349,82.0095655 C267.671777,81.4018017 267.36995,80.8101641 266.836998,80.5070961 C266.304046,80.2040281 265.643306,80.2482939 265.159044,80.6195097 C264.674782,80.9907255 264.460894,81.6169131 264.615874,82.2097193 C264.624701,82.8638517 264.513091,83.5133795 264.286625,84.1258215 C263.503082,86.1209418 262.180105,87.8562499 260.465111,89.1383846 C261.119235,87.9944441 261.342983,86.652435 261.096158,85.3534573 C261.894731,85.3360551 262.641843,84.9624193 263.133132,84.3347525 C263.624421,83.7070857 263.808468,82.8910799 263.634931,82.1099418 C263.508787,81.1814395 263.924021,80.2653532 264.703819,79.7517664 C265.483617,79.2381797 266.49064,79.2175472 267.29608,79.6986545 C268.101521,80.1797618 268.563523,81.0778748 268.485359,82.0105631 C267.347882,86.8018583 264.910765,91.1796973 261.441783,94.6630717 C259.651362,96.6605223 257.078694,97.777806 254.390248,97.7254819 C249.992661,97.3836398 246.06774,94.8041086 244,90.8968168 C245.716482,72.9471087 259.262391,58.4465065 277.040094,55.5281115 C294.817797,52.6097165 312.404664,61.9995495 319.936569,78.4310387 C327.468474,94.862528 323.071674,114.247946 309.212248,125.714395 L309.212247,125.714393 Z M74.3727769,125.714395 C60.5133508,114.247946 56.1165511,94.862528 63.6484559,78.4310387 C71.1803607,61.9995495 88.7672279,52.6097165 106.544931,55.5281115 C124.322634,58.4465065 137.868543,72.9471087 139.585025,90.8968168 C137.517285,94.8041086 133.592364,97.3836398 129.194777,97.7254819 C126.506331,97.777806 123.933663,96.6605223 122.143242,94.6630717 C118.67426,91.1796973 116.237143,86.8018583 115.099666,82.0105631 C115.021502,81.0778748 115.483504,80.1797618 116.288945,79.6986545 C117.094385,79.2175472 118.101407,79.2381797 118.881206,79.7517664 C119.661004,80.2653532 120.076238,81.1814395 119.950094,82.1099418 C119.776557,82.8910799 119.960604,83.7070857 120.451893,84.3347525 C120.943182,84.9624193 121.690294,85.3360551 122.488867,85.3534573 C122.242042,86.652435 122.46579,87.9944441 123.119914,89.1383846 C121.404919,87.8562499 120.081943,86.1209418 119.2984,84.1258215 C119.071934,83.5133795 118.960324,82.8638517 118.969151,82.2097193 C119.124131,81.6169131 118.910243,80.9907255 118.425981,80.6195097 C117.941719,80.2482939 117.280979,80.2040281 116.748027,80.5070961 C116.215075,80.8101641 115.913248,81.4018017 115.981535,82.0095655 C116.995486,86.6888272 119.356214,90.9621043 122.773192,94.3034982 C124.489086,96.1498618 126.951652,97.1162417 129.472449,96.9324751 C133.314457,96.2644986 136.693758,93.9798748 138.751911,90.6589661 C136.821021,78.9159911 129.824554,68.6431646 119.618645,62.5658277 C109.412737,56.4884908 97.0290363,55.2209624 85.7528918,59.0995128 C84.8296904,59.4602994 83.933815,59.8881999 83.0724731,60.3797717 C82.5081166,60.8067027 82.3187603,61.5698295 82.619025,62.2072173 C82.7777852,62.4969142 82.9651221,62.7698854 83.1782522,63.0220749 C83.7698266,63.7316132 84.455671,64.3567024 85.2168714,64.8801038 C85.2285736,65.2229952 85.248158,65.5655299 85.2756091,65.9074363 C85.6754761,65.6164142 86.0949389,65.3534612 86.530962,65.1204801 C86.4824363,65.6376185 86.4035086,66.1516083 86.2945894,66.6597764 C86.5710043,66.6147618 86.8394132,66.5289139 87.0910135,66.405048 C88.0676077,67.5235319 88.5438921,68.9946057 88.4098188,70.4783705 C91.2385836,70.503346 93.6330635,68.3700223 93.9368174,65.5541792 C94.1121713,63.9085234 93.0707391,62.3844351 91.4768261,61.9540948 C90.7460403,61.7650454 89.9682463,61.9900706 89.4477342,62.5411355 C88.897525,63.1867025 88.753942,64.0845243 89.076057,64.8652252 C89.2365048,65.2168102 89.5791896,65.4492121 89.9656667,65.4685404 C90.3521439,65.4878687 90.7185528,65.2909297 90.9168642,64.9572867 C90.9459939,64.8842289 91.0133367,64.8333156 91.0914387,64.8253029 C91.1695407,64.8172903 91.2453547,64.8535168 91.2879734,64.9192138 C91.330592,64.9849109 91.3328957,65.0691036 91.2939453,65.1374688 C90.9472236,65.6637278 90.3084257,65.916814 89.698233,65.769676 C89.0880404,65.622538 88.638232,65.1069523 88.5746153,64.4817468 C88.4614462,63.8162772 88.624913,63.1319771 89.0271911,62.5871863 C89.4294692,62.0423956 90.0356974,61.6843256 90.7056007,61.5958301 C92.7807845,61.5143552 94.5309735,63.108548 94.6431548,65.1824257 C94.7855491,66.9351282 94.0570261,68.6503986 92.694735,69.7698811 C91.3324438,70.8893636 89.5106144,71.2698822 87.8222897,70.7875704 C87.8835606,69.559204 87.1210193,68.4443113 85.9560738,68.0590225 C85.9111291,67.7620774 85.9146319,67.4595497 85.9664461,67.1632112 C85.5419823,67.4173545 85.1062808,67.6520982 84.6606941,67.8667138 C84.7007031,67.3521179 84.7898328,66.8422737 84.9268639,66.3441569 C84.6305046,66.2816132 84.3216142,66.311727 84.0419498,66.4304274 C83.2089692,65.2906281 82.4678959,64.0861119 81.8256847,62.8281828 C81.7156689,62.594899 81.4900307,62.4380725 81.2327503,62.4160724 C80.97547,62.3940723 80.7250783,62.5101933 80.5747685,62.7212166 C79.3921638,65.9350025 79.0924721,69.4030632 79.707025,72.7628264 C80.1105766,74.8405328 80.8736261,76.8299564 81.9618669,78.6416534 C82.7415887,79.8823647 83.8653455,80.8683291 85.197022,81.4801213 C87.5353992,82.715043 90.3614886,82.6032187 92.6091501,81.186834 C93.0440167,80.8867795 93.2862543,80.3775674 93.2440185,79.8522653 C93.2017828,79.3269632 92.8815403,78.8659996 92.4047111,78.6441486 C91.9829732,78.5368893 91.5348471,78.6622668 91.2279774,78.9733773 C91.0817969,79.1256261 90.9773106,79.3129469 90.9246932,79.5170991 C90.9034136,79.6208185 90.8265062,79.7045042 90.7249569,79.7344393 C90.6234077,79.7643745 90.513941,79.735629 90.4406609,79.6597843 C90.3673809,79.5839396 90.3423562,79.4734869 90.3756692,79.3729275 C90.6021651,78.8377428 91.0425392,78.4212528 91.5892187,78.2251962 C92.1459728,78.0413902 92.756978,78.175186 93.1832907,78.5742606 C93.607908,78.9513655 93.832116,79.5054941 93.7899969,80.0737306 C93.7478777,80.6419672 93.444219,81.1597201 92.9682974,81.4747682 C89.800541,83.4363161 85.7758981,83.3109912 82.7580139,81.1568263 C82.1075317,80.6722545 81.5614046,80.0616366 81.1518962,79.3610461 C80.0121964,77.5378359 79.2088434,75.5235467 78.7798179,73.4134101 C78.3429213,70.3269677 78.4750631,67.1835561 79.1697046,64.1387213 C79.1809027,63.9548099 79.1983556,63.7713 79.222033,63.5885109 C79.2404183,63.3511954 79.1128615,63.1272867 78.8997675,63.0228175 C78.6866735,62.9183483 78.4308204,62.9542904 78.253368,63.1136234 C77.6323918,63.520376 77.0378073,63.9662648 76.4732464,64.4485664 C67.5859772,71.9335648 62.3336748,82.8707724 62.0602731,94.4616291 C61.7868713,106.052486 66.5188979,117.17235 75.0455447,124.975925 C77.5794422,125.307925 80.1586467,125.060579 82.5893384,124.252474 C84.7158758,123.417146 86.4186137,121.75809 87.3098033,119.653109 C88.2009928,117.548127 88.2047697,115.176411 87.3202739,113.078049 C85.5770681,109.295742 82.6895418,106.161831 79.0640093,104.117301 C78.4995238,103.750778 77.7688889,103.758739 77.2085533,104.137518 C76.6482178,104.516298 76.3668291,105.192451 76.4939634,105.854617 C76.6210978,106.516784 77.1321042,107.036571 77.7916702,107.174624 C78.446443,107.375885 79.0579433,107.696248 79.5955912,108.11969 C81.2008163,109.530782 82.3805553,111.362209 83.0033527,113.409899 C82.2141989,112.355101 81.073484,111.618439 79.7861443,111.332259 C80.0200524,110.5689 79.9013007,109.742705 79.4623721,109.079667 C79.0234434,108.41663 78.3102766,107.986145 77.517949,107.905965 C76.6166617,107.66668 75.9342402,106.932063 75.7612713,106.014926 C75.5883025,105.097789 75.9552503,104.159662 76.705862,103.600017 C77.4564737,103.040371 78.4585486,102.957773 79.2853858,103.387394 C82.5841644,105.362491 85.3289557,108.138796 87.2670971,111.460745 C88.829464,113.889764 89.1557912,116.918441 88.1481819,119.638184 C87.1405726,122.357928 84.9162538,124.452318 82.1425128,125.293046 C79.5994932,125.920739 76.9635398,126.063685 74.3727782,125.714393 L74.3727769,125.714395 Z M88.8408333,235.782157 C91.3225138,236.603931 93.6290297,237.887936 95.6395179,239.56689 C97.7639891,241.538459 98.8450733,244.395961 98.5584495,247.282157 C98.2718256,250.168354 96.65084,252.747458 94.1817823,254.245749 C90.9835456,256.381872 87.2994917,257.673961 83.4687436,258.003077 C82.5372535,258.026756 81.6728032,257.513237 81.2434904,256.681184 C80.8141777,255.849131 80.8956148,254.845089 81.4531246,254.096597 C82.0106344,253.348104 82.9460258,252.986988 83.8609931,253.167019 C84.6082807,253.442288 85.437983,253.368002 86.123146,252.964482 C86.8083089,252.560961 87.2772226,251.870439 87.4016217,251.081798 C88.6841284,251.388913 90.0323274,251.226862 91.204007,250.624759 C89.746592,252.192194 87.8834051,253.321106 85.8220564,253.885702 C85.1531966,254.030601 84.4631461,254.050477 83.7864131,253.944336 C83.1330808,253.779282 82.4459314,254.022453 82.0413891,254.561872 C81.6368469,255.101292 81.5933513,255.832367 81.9309317,256.418446 C82.2685121,257.004526 82.9217126,257.33197 83.5897419,257.249996 C87.7446118,257.001713 91.7137193,255.450781 94.9385565,252.815437 C96.6533975,251.317179 97.6896948,249.183839 97.8114621,246.901223 C97.9332293,244.618606 97.1301008,242.381026 95.5849656,240.698025 C93.7545243,238.906159 91.5447799,237.553198 89.1217885,236.74081 C78.0372272,240.016781 68.9094821,247.936865 64.0741169,258.474509 C59.2387516,269.012153 59.1649335,281.144908 63.8715508,291.768303 C64.1675476,292.44928 64.5064919,293.110691 64.886313,293.748495 C64.9759591,293.969493 65.1901625,294.113956 65.4274863,294.113474 C65.6648102,294.112992 65.8776126,293.967662 65.9651203,293.746304 C66.0239687,293.571635 66.0887275,293.399047 66.1592842,293.228839 C66.8697123,290.187649 68.128925,287.304442 69.8746124,284.721889 C71.1852409,283.013383 72.7902961,281.555119 74.6138942,280.41604 C75.2890765,279.96587 76.0476096,279.656457 76.8446815,279.506079 C80.5014616,278.892882 84.1737254,280.544528 86.1610001,283.696208 C86.4506475,284.188002 86.4966062,284.78647 86.2853642,285.315662 C86.0741221,285.844853 85.6296913,286.244614 85.0827359,286.397414 C84.5246258,286.569217 83.9168057,286.421625 83.4969738,286.012356 C83.091567,285.596493 82.8783385,285.029107 82.9093749,284.448797 C82.9235157,284.343811 82.9944271,284.255507 83.0935389,284.219462 C83.1926507,284.183417 83.3036399,284.205568 83.381789,284.27699 C83.4599382,284.348412 83.4923767,284.457342 83.4660351,284.559893 C83.4238329,284.766449 83.4356285,284.980616 83.5002732,285.181538 C83.639704,285.595685 83.9875152,285.904819 84.4135901,285.993292 C84.9394144,286.002922 85.4293196,285.728996 85.6975581,285.275372 C85.9657966,284.821749 85.9712988,284.257882 85.7119786,283.797562 C84.312696,281.539214 81.8216442,280.199831 79.1785707,280.284694 C77.7134756,280.250801 76.2712314,280.644357 75.0265301,281.417694 C73.25423,282.568983 71.6962998,284.022566 70.4227835,285.713091 C68.3976037,288.463423 67.1466671,291.711872 66.8007541,295.118823 C66.8433452,295.374381 67.0174916,295.588515 67.2583779,295.681525 C67.4992642,295.774536 67.7708146,295.732495 67.971961,295.571048 C69.1006165,294.721956 70.2947139,293.964209 71.5430471,293.304919 C71.7423729,293.534203 72.0068008,293.696678 72.3005841,293.770379 C72.3957814,293.262604 72.5391731,292.765287 72.7287972,292.285233 C73.0352067,292.673461 73.3239077,293.075446 73.5940041,293.489941 C73.6773401,293.20088 73.8068112,292.927434 73.9773794,292.680244 C75.193325,292.844627 76.3674294,292.176845 76.8508398,291.045937 C78.5797276,291.352551 80.0503686,292.493196 80.784039,294.096569 C81.5177094,295.699943 81.4205765,297.560981 80.5242591,299.073878 C79.514303,300.88869 77.2423954,301.554308 75.4129488,300.571379 C74.8496376,300.198173 74.4617308,299.610589 74.3389862,298.944587 C74.2162416,298.278585 74.3692961,297.591881 74.7627344,297.043371 C75.0939848,296.509328 75.7242878,296.243106 76.3372264,296.37835 C76.950165,296.513594 77.4133671,297.021097 77.4943017,297.646088 C77.4993407,297.724609 77.4603625,297.799271 77.3932574,297.839636 C77.3261523,297.880002 77.2421305,297.879327 77.1754454,297.837888 C77.1087603,297.796448 77.070552,297.721167 77.0763969,297.642733 C77.0444152,297.255923 76.8014214,296.918292 76.4455851,296.766244 C76.0897488,296.614196 75.6798674,296.672854 75.3815331,296.918521 C74.7497813,297.479004 74.4852537,298.348904 74.6967805,299.170331 C74.9230428,299.893803 75.5234748,300.437016 76.2631745,300.587455 C77.8844228,300.899393 79.4885722,299.986086 80.0523732,298.43011 C81.0137454,295.76609 79.7967887,292.799001 77.2433632,291.5814 C76.7134278,292.973772 75.6404699,294.087175 74.2724018,294.664351 C74.1005641,294.442727 73.8969531,294.247905 73.6682461,294.086274 C73.5433758,294.590759 73.3889973,295.08733 73.2059133,295.573403 C72.9161505,295.172861 72.6544109,294.75264 72.4225885,294.315781 C72.2480337,294.611051 72.080274,294.910334 71.9194425,295.213392 C71.005836,295.350134 70.115382,295.611306 69.2726374,295.989706 C68.9705248,296.122942 68.6824848,296.286164 68.4127972,296.476946 C67.8635087,296.918199 67.6991682,297.687101 68.0192542,298.318222 C68.5779324,299.137631 69.1955606,299.914951 69.8671701,300.643929 C78.301857,309.073083 89.9879011,313.362493 101.82504,312.374195 C113.662179,311.385897 124.453873,305.21979 131.337126,295.511721 C130.943062,291.624673 128.907279,288.089879 125.746927,285.80528 C123.561807,284.535067 120.924835,284.324126 118.573207,285.231428 C114.037277,286.736749 110.042187,289.542669 107.0796,293.303875 C106.751798,293.820194 106.763722,294.484267 107.10988,294.990294 C107.456038,295.49632 108.069311,295.746183 108.667294,295.624824 C109.265276,295.503464 109.73202,295.034412 109.852594,294.433663 C110.131413,293.841863 110.516462,293.306998 110.988485,292.855815 C112.567332,291.406095 114.517124,290.426365 116.620602,290.025794 C115.531209,290.767212 114.741807,291.875317 114.394217,293.151032 C113.668836,292.816601 112.833546,292.824911 112.116827,293.173687 C111.400108,293.522463 110.876974,294.175203 110.69052,294.953359 C110.396869,295.843189 109.622073,296.484536 108.696054,296.604303 C107.770034,296.724071 106.855884,296.301166 106.342862,295.515668 C105.82984,294.730169 105.808302,293.720422 106.287419,292.916392 C109.410142,289.108642 113.519727,286.242228 118.164638,284.632094 C120.649483,283.621666 123.451566,283.745241 125.844988,284.970807 C129.64766,287.205828 132.044563,291.244867 132.190191,295.663155 C122.778794,311.04379 104.247166,318.138709 86.9893319,312.968513 C69.7314979,307.798317 58.0407583,291.649216 58.4742179,273.578922 C58.9076775,255.508627 71.3575028,240.012559 88.8408328,235.782156 L88.8408333,235.782157 Z" id="Combined-Shape" fill="#FFFFFF" fill-rule="nonzero" opacity="0.196126302"></path>
    </g>
</svg>