<?xml version="1.0" encoding="utf-8"?>
<!-- Generator: Adobe Illustrator 24.0.2, SVG Export Plug-In . SVG Version: 6.00 Build 0)  -->
<svg version="1.1" id="Layer_1" xmlns="http://www.w3.org/2000/svg" xmlns:xlink="http://www.w3.org/1999/xlink" x="0px" y="0px"
	 viewBox="0 0 456 456" style="enable-background:new 0 0 456 456;" xml:space="preserve">
<style type="text/css">
	.st0{fill-rule:evenodd;clip-rule:evenodd;fill:#211104;}
	.st1{fill-rule:evenodd;clip-rule:evenodd;fill:url(#path-5_1_);}
	.st2{fill:none;}
	.st3{fill-rule:evenodd;clip-rule:evenodd;fill:url(#path-5_2_);}
	.st4{fill-rule:evenodd;clip-rule:evenodd;fill:url(#SVGID_1_);stroke:#000000;stroke-width:8;stroke-opacity:9.730113e-02;}
	.st5{fill:none;stroke:url(#SVGID_2_);stroke-width:6;}
	.st6{opacity:0.3;fill:#FFFFFF;enable-background:new    ;}
</style>
<g id="drums_x2F_sketches_x2F_9P_1_">
	<g id="Oval_1_">
		<g>
			<circle id="path-5_7_" class="st0" cx="228" cy="240" r="192"/>
		</g>
		<g>
			
				<radialGradient id="path-5_1_" cx="-1861.1406" cy="792.2098" r="1.0441" gradientTransform="matrix(384 0 0 -384 714714 304256.5625)" gradientUnits="userSpaceOnUse">
				<stop  offset="0" style="stop-color:#FFFFFF;stop-opacity:0.6387"/>
				<stop  offset="1" style="stop-color:#FFFFFF;stop-opacity:0"/>
			</radialGradient>
			<circle id="path-5_6_" class="st1" cx="228" cy="240" r="192"/>
		</g>
		<g>
			<circle id="path-5_5_" class="st2" cx="228" cy="240" r="192"/>
		</g>
		<g>
			
				<radialGradient id="path-5_2_" cx="-1862.7373" cy="788.764" r="0.9251" gradientTransform="matrix(325.9562 -202.9989 -193.8853 -311.3224 760343.125 -132122.2031)" gradientUnits="userSpaceOnUse">
				<stop  offset="0" style="stop-color:#000000;stop-opacity:0.4061"/>
				<stop  offset="1" style="stop-color:#000000;stop-opacity:0"/>
			</radialGradient>
			<circle id="path-5_4_" class="st3" cx="228" cy="240" r="192"/>
		</g>
		
			<radialGradient id="SVGID_1_" cx="-1862.7952" cy="798.6786" r="0.4874" gradientTransform="matrix(2.302336e-14 376 431.8947 -2.644592e-14 -344717.0938 700651)" gradientUnits="userSpaceOnUse">
			<stop  offset="0" style="stop-color:#FFFFFF;stop-opacity:0"/>
			<stop  offset="0.2579" style="stop-color:#FFFFFF;stop-opacity:2.790579e-02"/>
			<stop  offset="0.3241" style="stop-color:#FFFFFF;stop-opacity:0"/>
			<stop  offset="0.3852" style="stop-color:#FFFFFF;stop-opacity:6.620252e-03"/>
			<stop  offset="0.5438" style="stop-color:#FFFFFF;stop-opacity:3.070625e-02"/>
			<stop  offset="1" style="stop-color:#FFFFFF;stop-opacity:0.1595"/>
		</radialGradient>
		<circle class="st4" cx="228" cy="240" r="188"/>
		
			<radialGradient id="SVGID_2_" cx="-1860.5635" cy="791.8312" r="0.897" gradientTransform="matrix(378 0 0 -378 703521 299490.4375)" gradientUnits="userSpaceOnUse">
			<stop  offset="0" style="stop-color:#F9F1BA"/>
			<stop  offset="1" style="stop-color:#978E58"/>
		</radialGradient>
		<circle class="st5" cx="228" cy="240" r="189"/>
	</g>
	<path id="Combined-Shape_5_" class="st6" d="M352,204.3c15.3,0,27.7,14.7,27.7,32.7s-12.4,32.7-27.7,32.7S324.3,255,324.3,237
		S336.7,204.3,352,204.3z M352,205.7c-14.5,0-26.3,14-26.3,31.3s11.8,31.3,26.3,31.3s26.3-14,26.3-31.3S366.5,205.7,352,205.7z
		 M152.8,363.8c-12,12-34.6,8.8-50.5-7.1s-19.1-38.5-7.1-50.5s34.6-8.8,50.5,7.1C161.6,329.2,164.8,351.8,152.8,363.8z M151.8,362.8
		c11.4-11.4,8.3-33.1-7.1-48.5s-37.1-18.5-48.5-7.1s-8.3,33.1,7.1,48.5S140.4,374.2,151.8,362.8z M307.5,313.3
		c15.9-15.9,38.5-19.1,50.5-7.1s8.8,34.6-7.1,50.5s-38.5,19.1-50.5,7.1S291.6,329.2,307.5,313.3z M349.9,355.7
		c15.4-15.4,18.5-37.1,7.1-48.5s-33.1-8.3-48.5,7.1c-15.4,15.4-18.5,37.1-7.1,48.5C312.8,374.2,334.5,371.1,349.9,355.7z M228,277.3
		c28.4,0,51.3-18.1,51.3-40.3s-22.9-40.3-51.3-40.3s-51.3,18.1-51.3,40.3S199.6,277.3,228,277.3z M228,278.7
		c-29.1,0-52.7-18.6-52.7-41.7s23.6-41.7,52.7-41.7s52.7,18.6,52.7,41.7S257.1,278.7,228,278.7z M193.4,128.3
		c-13.6,0-24.7-10.4-24.7-23.2c0-12.6,10.9-22.2,24.7-22.2s24.7,9.5,24.7,22.2C218.1,117.9,207,128.3,193.4,128.3z M193.4,126.9
		c12.9,0,23.3-9.8,23.3-21.8c0-11.8-10.2-20.8-23.3-20.8s-23.3,9-23.3,20.8C170.1,117.1,180.5,126.9,193.4,126.9z M265.6,128.3
		c-13.6,0-24.7-10.4-24.7-23.2c0-12.6,10.9-22.2,24.7-22.2c13.8,0,24.7,9.5,24.7,22.2C290.3,117.9,279.2,128.3,265.6,128.3z
		 M265.6,126.9c12.9,0,23.3-9.8,23.3-21.8c0-11.8-10.2-20.8-23.3-20.8s-23.3,9-23.3,20.8C242.3,117.1,252.7,126.9,265.6,126.9z
		 M103,177.5c-11.3-9.5-11-28.4,0.6-42.2s30.1-17.4,41.5-7.9c11.3,9.5,11,28.4-0.6,42.2C132.8,183.5,114.3,187.1,103,177.5z
		 M103.9,176.5c10.7,9,28.4,5.5,39.5-7.7c11.1-13.3,11.4-31.3,0.7-40.2s-28.4-5.5-39.5,7.7S93.2,167.5,103.9,176.5z M305.5,132.6
		c7.4-12.8,26.1-15.8,41.7-6.8s22.4,26.7,15,39.5c-7.4,12.8-26.1,15.8-41.7,6.8S298.1,145.6,305.5,132.6z M306.7,133.4
		c-7,12.1-0.5,28.9,14.5,37.6s32.8,5.8,39.8-6.3s0.5-28.9-14.5-37.6C331.5,118.4,313.7,121.3,306.7,133.4z M228,407.7
		c-24.7,0-44.7-15.5-44.7-34.7s20-34.7,44.7-34.7s44.7,15.5,44.7,34.7S252.7,407.7,228,407.7z M228,406.3c23.9,0,43.3-15,43.3-33.3
		s-19.4-33.3-43.3-33.3s-43.3,15-43.3,33.3S204.1,406.3,228,406.3z M104,269.7c-15.3,0-27.7-14.7-27.7-32.7s12.4-32.7,27.7-32.7
		s27.7,14.7,27.7,32.7S119.3,269.7,104,269.7z M104,268.3c14.5,0,26.3-14,26.3-31.3s-11.8-31.3-26.3-31.3s-26.3,14-26.3,31.3
		S89.5,268.3,104,268.3z"/>
</g>
<path id="Combined-Shape_4_" class="st6" d="M259.3,182.8c-11.7,0-21.3-8.9-21.3-20c0-10.9,9.3-19.1,21.3-19.1
	c12,0,21.3,8.2,21.3,19.1C280.6,173.9,271.1,182.8,259.3,182.8z M259.3,181.6c11.1,0,20.1-8.4,20.1-18.8c0-10.2-8.8-17.9-20.1-17.9
	c-11.3,0-20,7.7-20,17.9C239.3,173.2,248.3,181.6,259.3,181.6z M201.7,182.8c-11.7,0-21.3-8.9-21.3-20c0-10.9,9.4-19.1,21.3-19.1
	s21.3,8.2,21.3,19.1C222.9,173.9,213.4,182.8,201.7,182.8z M201.7,181.6c11.1,0,20.1-8.4,20.1-18.8c0-10.2-8.8-17.9-20.1-17.9
	s-20.1,7.7-20.1,17.9C181.6,173.2,190.6,181.6,201.7,181.6z"/>
<path id="Combined-Shape_1_" class="st6" d="M630.8,214.5c6.3-9.9,18.9-13.2,28.3-7.3c9.2,5.8,11.2,18.1,4.8,28.2
	s-18.3,13.6-27.5,7.7C627,237.2,624.6,224.4,630.8,214.5L630.8,214.5z M631.9,215.1c-5.9,9.4-3.6,21.5,5.2,27
	c8.6,5.4,19.8,2.2,25.8-7.4s4.2-21.1-4.4-26.5C649.7,202.6,637.8,205.7,631.9,215.1L631.9,215.1z M590.7,254.5
	c6.3-9.9,18.9-13.2,28.3-7.3c9.2,5.8,11.2,18,4.8,28.2c-6.4,10.1-18.3,13.6-27.5,7.8C587,277.2,584.5,264.4,590.7,254.5z
	 M591.8,255.1c-5.9,9.4-3.6,21.5,5.2,27c8.6,5.4,19.8,2.2,25.8-7.4s4.2-21.1-4.4-26.5C609.6,242.6,597.7,245.7,591.8,255.1z"/>
</svg>
