<?xml version="1.0" encoding="utf-8"?>
<!-- Generator: Adobe Illustrator 24.0.2, SVG Export Plug-In . SVG Version: 6.00 Build 0)  -->
<svg version="1.1" id="Layer_1" xmlns="http://www.w3.org/2000/svg" xmlns:xlink="http://www.w3.org/1999/xlink" x="0px" y="0px"
	 viewBox="0 0 456 456" style="enable-background:new 0 0 456 456;" xml:space="preserve">
<style type="text/css">
	.st0{fill-rule:evenodd;clip-rule:evenodd;fill:#211104;}
	.st1{fill-rule:evenodd;clip-rule:evenodd;fill:url(#path-5_4_);}
	.st2{fill:none;}
	.st3{fill-rule:evenodd;clip-rule:evenodd;fill:url(#path-5_5_);}
	.st4{fill-rule:evenodd;clip-rule:evenodd;fill:url(#SVGID_1_);stroke:#000000;stroke-width:8;stroke-opacity:9.730113e-02;}
	.st5{fill:none;stroke:url(#SVGID_2_);stroke-width:6;}
	.st6{opacity:0.3;fill:#FFFFFF;enable-background:new    ;}
</style>
<g id="Oval_5_">
	<g>
		<circle id="path-5_8_" class="st0" cx="228" cy="228" r="192"/>
	</g>
	<g>
		
			<radialGradient id="path-5_4_" cx="-1293.1766" cy="269.614" r="1.0441" gradientTransform="matrix(384 0 0 384 496615.875 -103495.75)" gradientUnits="userSpaceOnUse">
			<stop  offset="0" style="stop-color:#FFFFFF;stop-opacity:0.6387"/>
			<stop  offset="1" style="stop-color:#FFFFFF;stop-opacity:0"/>
		</radialGradient>
		<circle id="path-5_3_" class="st1" cx="228" cy="228" r="192"/>
	</g>
	<g>
		<circle id="path-5_2_" class="st2" cx="228" cy="228" r="192"/>
	</g>
	<g>
		
			<radialGradient id="path-5_5_" cx="-1293.6941" cy="272.4188" r="0.9251" gradientTransform="matrix(325.9562 -202.9989 193.8853 311.3224 369112.25 -346989.0938)" gradientUnits="userSpaceOnUse">
			<stop  offset="0" style="stop-color:#000000;stop-opacity:0.4061"/>
			<stop  offset="1" style="stop-color:#000000;stop-opacity:0"/>
		</radialGradient>
		<circle id="path-5_1_" class="st3" cx="228" cy="228" r="192"/>
	</g>
	
		<radialGradient id="SVGID_1_" cx="-1295" cy="266.0807" r="0.4874" gradientTransform="matrix(2.302336e-14 376 -431.8947 2.644592e-14 115146.8672 487148)" gradientUnits="userSpaceOnUse">
		<stop  offset="0" style="stop-color:#FFFFFF;stop-opacity:0"/>
		<stop  offset="0.2579" style="stop-color:#FFFFFF;stop-opacity:2.790579e-02"/>
		<stop  offset="0.3241" style="stop-color:#FFFFFF;stop-opacity:0"/>
		<stop  offset="0.3852" style="stop-color:#FFFFFF;stop-opacity:6.620252e-03"/>
		<stop  offset="0.5438" style="stop-color:#FFFFFF;stop-opacity:3.070625e-02"/>
		<stop  offset="1" style="stop-color:#FFFFFF;stop-opacity:0.1595"/>
	</radialGradient>
	<circle class="st4" cx="228" cy="228" r="188"/>
	
		<radialGradient id="SVGID_2_" cx="-1292.6232" cy="269.9668" r="0.897" gradientTransform="matrix(378 0 0 378 488839.5625 -101881.25)" gradientUnits="userSpaceOnUse">
		<stop  offset="0" style="stop-color:#F9F1BA"/>
		<stop  offset="1" style="stop-color:#978E58"/>
	</radialGradient>
	<circle class="st5" cx="228" cy="228" r="189"/>
</g>
<path id="Combined-Shape_2_" class="st6" d="M371.1,201.3c15.3,0,27.7,14.7,27.7,32.7s-12.4,32.7-27.7,32.7S343.4,252,343.4,234
	S355.8,201.3,371.1,201.3z M371.1,202.7c-14.5,0-26.3,14-26.3,31.3s11.8,31.3,26.3,31.3s26.3-14,26.3-31.3S385.6,202.7,371.1,202.7z
	 M152.8,351.8c-12,12-34.6,8.8-50.5-7.1s-19.1-38.5-7.1-50.5s34.6-8.8,50.5,7.1C161.6,317.2,164.8,339.8,152.8,351.8z M151.8,350.8
	c11.4-11.4,8.3-33.1-7.1-48.5c-15.4-15.4-37.1-18.5-48.5-7.1s-8.3,33.1,7.1,48.5C118.7,359.1,140.4,362.2,151.8,350.8z M368.9,305.8
	c7.2,15.4-3.6,35.5-23.9,45c-20.3,9.5-42.7,4.8-49.9-10.6s3.6-35.5,23.9-45C339.4,285.7,361.7,290.4,368.9,305.8z M367.7,306.4
	c-6.8-14.6-28.3-19.1-48-9.9s-30.1,28.5-23.2,43.2s28.3,19.1,48,9.9C364.1,340.4,374.5,321,367.7,306.4z M228,274.3
	c28.4,0,51.3-18.1,51.3-40.3c0-22.2-22.9-40.3-51.3-40.3s-51.3,18.1-51.3,40.3C176.7,256.2,199.7,274.3,228,274.3z M228,275.7
	c-29.1,0-52.7-18.6-52.7-41.7c0-23.1,23.6-41.7,52.7-41.7c29.1,0,52.7,18.6,52.7,41.7C280.7,257.1,257.1,275.7,228,275.7z
	 M228,109.3c-13.3,0-24.2-10.1-24.2-22.7c0-12.4,10.6-21.7,24.2-21.7s24.2,9.3,24.2,21.7C252.2,99.1,241.3,109.3,228,109.3z
	 M228,107.9c12.6,0,22.8-9.5,22.8-21.3c0-11.6-10-20.3-22.8-20.3s-22.8,8.7-22.8,20.3C205.2,98.4,215.4,107.9,228,107.9z
	 M158.7,127.6c-13.3,0-24.2-10.1-24.2-22.7c0-12.4,10.6-21.7,24.2-21.7s24.2,9.3,24.2,21.7C182.8,117.5,172,127.6,158.7,127.6z
	 M158.7,126.2c12.6,0,22.8-9.5,22.8-21.3c0-11.6-10-20.3-22.8-20.3c-12.8,0-22.8,8.7-22.8,20.3C136,116.7,146.2,126.2,158.7,126.2z
	 M301,130.1c-13.3-0.2-24-10.5-23.8-23.1c0.2-12.4,10.9-21.5,24.5-21.3c13.5,0.2,24,9.7,23.8,22.1
	C325.4,120.4,314.3,130.3,301,130.1z M301.1,128.7c12.6,0.2,23-9.2,23.2-20.9c0.2-11.6-9.6-20.5-22.5-20.7
	c-12.8-0.2-22.9,8.4-23.1,19.9C278.4,118.8,288.5,128.5,301.1,128.7z M271.3,184.6c-13.3,0-24.2-10.1-24.2-22.7
	c0-12.4,10.6-21.7,24.2-21.7s24.2,9.3,24.2,21.7C295.4,174.4,284.6,184.6,271.3,184.6z M271.3,183.3c12.6,0,22.8-9.5,22.8-21.3
	c0-11.6-10-20.3-22.8-20.3s-22.8,8.7-22.8,20.3C248.5,173.6,258.7,183.3,271.3,183.3z M184.7,183.3c-13.3,0-24.2-10.1-24.2-22.7
	c0-12.4,10.6-21.7,24.2-21.7c13.5,0,24.2,9.3,24.2,21.7C208.9,173.1,198,183.3,184.7,183.3z M184.7,181.9c12.6,0,22.8-9.5,22.8-21.3
	c0-11.6-10-20.3-22.8-20.3s-22.8,8.7-22.8,20.3C161.9,172.3,172.1,181.9,184.7,181.9z M80.1,181.7c-11.3-9.5-11-28.4,0.6-42.2
	s30.1-17.4,41.5-7.9c11.3,9.5,11,28.4-0.6,42.2C110,187.6,91.5,191.2,80.1,181.7z M81,180.6c10.7,9,28.4,5.5,39.5-7.7
	s11.4-31.3,0.7-40.2c-10.7-9-28.4-5.5-39.5,7.7S70.4,171.7,81,180.6z M334.4,131.1c11.6-9.2,30-5.2,41.3,8.9
	c11.2,14.1,11.1,33-0.5,42.2s-30,5.2-41.3-8.9S322.8,140.3,334.4,131.1z M335.2,132.2c-10.9,8.7-11.1,26.7-0.3,40.2
	s28.4,17.4,39.3,8.7c10.9-8.7,11.1-26.7,0.3-40.2C363.7,127.3,346.1,123.5,335.2,132.2z M228,399.9c-24.7,0-44.7-15.5-44.7-34.7
	s20-34.7,44.7-34.7s44.7,15.5,44.7,34.7S252.7,399.9,228,399.9z M228,398.5c23.9,0,43.3-15,43.3-33.3s-19.4-33.3-43.3-33.3
	s-43.3,15-43.3,33.3S204.1,398.5,228,398.5z M87.9,265.3c-15.3,0-27.7-14.7-27.7-32.7s12.4-32.7,27.7-32.7s27.7,14.7,27.7,32.7
	S103.3,265.3,87.9,265.3z M87.9,263.9c14.5,0,26.3-14,26.3-31.3s-11.8-31.3-26.3-31.3s-26.3,14-26.3,31.3S73.4,263.9,87.9,263.9z"/>
</svg>
