<?xml version="1.0" encoding="UTF-8"?>
<svg width="24px" height="24px" viewBox="0 0 24 24" version="1.1" xmlns="http://www.w3.org/2000/svg" xmlns:xlink="http://www.w3.org/1999/xlink">
    <!-- Generator: Sketch 52.5 (67469) - http://www.bohemiancoding.com/sketch -->
    <title>icons/stop</title>
    <desc>Created with Sketch.</desc>
    <g id="icons/stop" stroke="none" stroke-width="1" fill="none" fill-rule="evenodd">
        <g id="icon" fill="#FFFFFF">
            <path d="M12.0003993,0 C5.37166816,0 0,5.37238327 0,12.0019969 C0,18.6292142 5.37166816,24 12.0003993,24 C18.6275332,24 24,18.6284155 24,12.0019969 C24.0007986,5.37238327 18.6275332,0 12.0003993,0 Z M12.0003993,21.9975372 C6.48018369,21.9975372 2.00459219,17.5237461 2.00459219,12.0019969 C2.00459219,6.48264386 6.48018369,2.00326156 12.0003993,2.00326156 C17.5198163,2.00326156 21.9946092,6.48184511 21.9946092,12.0019969 C21.9954078,17.5237461 17.5198163,21.9975372 12.0003993,21.9975372 Z" id="Shape" fill-rule="nonzero"></path>
            <g id="Group" transform="translate(8.000000, 8.000000)">
                <rect id="Rectangle" x="0" y="0" width="8" height="8" rx="1"></rect>
            </g>
        </g>
    </g>
</svg>